<svg id="svg" version="1.1" xmlns="http://www.w3.org/2000/svg" xmlns:xlink="http://www.w3.org/1999/xlink" width="400" height="400" viewBox="0, 0, 400,400"><g id="svgg"><path id="path0" d="M13.565 1.502 C 8.915 3.613,4.301 8.082,1.998 12.704 L 0.000 16.713 0.017 199.958 C 0.034 376.437,0.088 383.320,1.477 386.379 C 3.449 390.721,7.319 394.956,11.631 397.491 L 15.234 399.609 113.672 399.833 C 184.768 399.995,212.999 399.813,215.312 399.179 C 220.042 397.881,225.655 393.221,228.438 388.281 L 230.859 383.984 231.082 344.735 L 231.305 305.486 242.946 311.317 C 256.764 318.237,258.911 319.987,264.074 328.535 C 273.597 344.300,290.339 351.596,307.813 347.594 C 311.703 346.703,350.287 327.057,352.507 324.836 C 354.336 323.007,354.304 318.633,352.444 316.337 C 349.735 312.991,347.118 313.807,327.609 324.083 C 306.616 335.140,304.622 335.937,297.957 335.937 C 287.862 335.938,280.612 331.288,274.228 320.719 C 269.108 312.243,263.812 307.554,253.698 302.545 C 203.275 277.574,166.559 259.183,165.529 258.381 C 159.136 253.407,159.599 242.176,166.432 236.426 C 172.278 231.507,175.676 232.279,196.484 243.258 C 214.785 252.914,216.841 253.542,219.957 250.426 C 223.198 247.186,222.787 246.257,192.860 189.253 C 168.002 141.903,163.791 133.404,163.470 129.931 C 162.289 117.141,177.642 108.611,185.994 117.416 C 187.301 118.794,199.757 141.669,213.673 168.250 C 241.389 221.189,240.393 219.531,244.516 219.531 C 252.183 219.531,252.395 214.645,245.313 201.226 C 237.546 186.511,238.197 180.251,248.001 175.365 C 256.998 170.882,261.007 173.360,268.793 188.215 C 275.237 200.508,276.632 202.017,280.827 201.229 C 287.522 199.973,287.376 196.316,280.078 182.447 C 272.386 167.830,272.566 163.022,280.988 158.087 C 290.308 152.625,294.982 155.165,302.742 169.912 C 309.873 183.462,311.595 185.040,316.707 182.711 C 321.773 180.403,321.417 178.153,313.641 163.325 C 308.738 153.977,307.829 151.678,308.241 149.675 C 310.524 138.578,325.135 134.144,332.515 142.309 C 334.135 144.101,346.583 167.381,356.211 186.623 C 365.114 204.417,371.707 222.055,377.384 243.266 C 379.095 249.660,381.582 257.394,382.910 260.454 C 387.054 269.996,387.430 271.341,387.466 276.729 C 387.527 286.089,382.957 294.435,375.321 298.910 C 366.093 304.318,371.913 314.920,381.441 310.059 C 398.304 301.456,404.728 278.629,395.924 258.594 C 393.942 254.082,391.567 247.402,390.646 243.750 C 383.270 214.495,376.562 197.844,357.132 160.550 C 347.227 141.541,344.180 136.364,340.991 133.132 C 328.354 120.318,304.686 124.655,297.916 141.024 C 296.636 144.118,296.296 144.409,294.535 143.912 C 283.399 140.767,269.553 147.071,264.238 157.708 L 262.014 162.159 258.937 161.488 C 250.976 159.752,239.584 163.436,234.083 169.525 L 231.279 172.628 231.069 94.322 L 230.859 16.016 228.438 11.719 C 225.742 6.934,220.216 2.249,215.655 0.883 C 213.558 0.254,191.875 0.000,140.383 0.000 L 68.057 0.000 66.841 1.736 C 65.226 4.043,65.298 8.027,66.992 10.066 L 68.359 11.712 139.453 11.911 C 226.039 12.153,218.750 10.466,218.750 30.261 L 218.750 39.844 115.625 39.844 L 12.500 39.844 12.500 30.039 C 12.500 14.010,14.245 12.280,30.848 11.845 C 43.530 11.512,44.531 11.074,44.531 5.859 C 44.531 0.338,43.638 -0.003,29.235 0.017 C 18.757 0.032,16.287 0.266,13.565 1.502 M218.728 101.367 L 218.705 150.391 212.104 137.891 L 205.503 125.391 205.486 106.420 C 205.468 86.155,205.110 83.868,201.330 79.819 C 197.372 75.580,201.647 75.780,115.468 75.794 L 35.547 75.807 32.438 77.568 C 26.006 81.211,25.809 82.176,25.794 110.105 C 25.780 137.946,26.069 139.514,31.891 143.135 L 34.766 144.922 95.266 145.313 L 155.767 145.703 177.846 187.863 C 189.990 211.050,199.822 230.125,199.696 230.252 C 199.570 230.378,196.159 228.760,192.116 226.655 C 188.073 224.551,183.484 222.424,181.918 221.928 C 179.171 221.058,179.037 220.843,178.114 215.787 C 167.107 155.499,85.093 143.860,58.612 198.828 C 29.055 260.181,103.966 318.991,156.321 275.538 L 161.471 271.264 179.759 280.392 C 189.817 285.412,202.705 291.734,208.398 294.440 L 218.750 299.360 218.750 310.617 L 218.750 321.875 115.625 321.875 L 12.500 321.875 12.500 187.109 L 12.500 52.344 115.625 52.344 L 218.750 52.344 218.728 101.367 M192.799 97.487 L 193.020 106.303 188.893 104.128 C 172.251 95.362,151.404 107.733,150.160 127.111 L 149.794 132.823 94.233 132.622 L 38.672 132.422 38.464 110.348 L 38.257 88.274 115.418 88.473 L 192.578 88.672 192.799 97.487 M127.649 177.322 C 145.728 181.946,160.242 196.459,164.866 214.539 C 166.818 222.174,166.966 221.465,163.027 223.372 C 150.110 229.624,144.011 246.146,150.087 258.423 L 152.127 262.545 147.743 266.062 C 114.346 292.855,64.806 269.542,64.635 226.953 C 64.502 193.837,95.809 169.179,127.649 177.322 M122.917 218.894 L 103.186 238.570 95.769 231.394 C 87.640 223.530,85.671 222.750,81.746 225.838 C 77.212 229.404,78.400 231.940,90.050 243.566 C 104.446 257.932,100.537 259.199,128.696 231.040 C 154.509 205.227,155.247 204.039,147.903 200.128 C 144.006 198.052,143.248 198.621,122.917 218.894 M218.750 356.848 C 218.750 382.003,218.529 383.177,213.193 386.328 C 209.259 388.651,22.372 388.802,18.130 386.486 C 12.649 383.493,12.506 382.752,12.503 357.227 L 12.500 334.375 115.625 334.375 L 218.750 334.375 218.750 356.848 M90.756 346.989 C 79.421 352.600,80.467 371.988,92.338 376.289 C 97.060 377.999,135.599 377.641,139.544 375.849 C 151.196 370.558,151.033 351.272,139.295 346.368 C 134.547 344.384,94.997 344.890,90.756 346.989 M135.000 358.750 C 136.205 359.955,136.205 362.701,135.000 363.906 C 133.377 365.529,97.788 365.205,95.960 363.551 C 94.208 361.965,94.149 360.650,95.759 359.040 C 97.355 357.444,133.427 357.177,135.000 358.750 " stroke="none" fill="#000000" fill-rule="evenodd"></path></g></svg>