<svg xmlns="http://www.w3.org/2000/svg" width="256" height="256" viewBox="0 0 256 256" version="1.1"><path d="M 11.655 66.829 C 10.439 68.173, 10 70.559, 10 75.829 L 10 83 47.500 83 C 68.125 83, 85 82.845, 85 82.655 C 85 82.465, 80.712 78.415, 75.472 73.655 L 65.944 65 39.627 65 C 15.401 65, 13.178 65.145, 11.655 66.829 M 36 108.500 C 36 124.333, 36.081 125, 38 125 C 39.919 125, 40 124.333, 40 108.500 C 40 92.667, 39.919 92, 38 92 C 36.081 92, 36 92.667, 36 108.500 M 68 108.500 C 68 124.333, 68.081 125, 70 125 C 71.919 125, 72 124.333, 72 108.500 C 72 92.667, 71.919 92, 70 92 C 68.081 92, 68 92.667, 68 108.500 M 125 126 C 125 159.333, 125.039 160, 127 160 C 128.961 160, 129 159.333, 129 126 C 129 92.667, 128.961 92, 127 92 C 125.039 92, 125 92.667, 125 126 M 191 108.500 C 191 124.333, 191.081 125, 193 125 C 194.919 125, 195 124.333, 195 108.500 C 195 92.667, 194.919 92, 193 92 C 191.081 92, 191 92.667, 191 108.500 M 43.444 141.374 C 30.291 147.499, 24.453 164.166, 30.979 176.960 C 34.821 184.490, 45.495 191, 54 191 C 59.462 191, 67.191 187.865, 71.482 183.910 C 85.353 171.124, 81.486 148.985, 64 141.079 C 57.765 138.259, 49.890 138.372, 43.444 141.374 M 189 141.079 C 175.849 147.025, 169.563 162.140, 174.994 174.763 C 177.933 181.597, 184.328 187.426, 191.087 189.433 C 197.639 191.379, 200.309 191.394, 206.612 189.523 C 220.051 185.532, 227.601 171.459, 223.631 157.801 C 219.338 143.035, 202.576 134.941, 189 141.079 M 46.316 148.943 C 39.023 152.254, 34.873 161.100, 36.965 168.871 C 39.174 177.075, 45.759 182, 54.518 182 C 59.959 182, 63.818 180.193, 67.354 175.991 C 74.730 167.225, 72.486 154.954, 62.470 149.282 C 57.593 146.519, 51.917 146.400, 46.316 148.943 M 190.530 149.282 C 180.514 154.954, 178.270 167.225, 185.646 175.991 C 189.182 180.193, 193.041 182, 198.482 182 C 207.241 182, 213.826 177.075, 216.035 168.871 C 219.946 154.346, 203.665 141.842, 190.530 149.282 M 48.089 159.506 C 44.076 163.592, 43.781 164.224, 44.818 166.499 C 45.444 167.874, 46.570 169, 47.318 169 C 48.067 169, 49.205 170.155, 49.848 171.566 C 50.758 173.563, 51.624 174.061, 53.758 173.816 C 55.373 173.630, 56.876 172.643, 57.416 171.416 C 57.919 170.269, 59.269 168.919, 60.416 168.416 C 61.643 167.876, 62.630 166.373, 62.816 164.758 C 63.061 162.624, 62.563 161.758, 60.566 160.848 C 59.155 160.205, 58 159.092, 58 158.375 C 58 157.127, 55.029 154.992, 53.316 155.008 C 52.867 155.012, 50.515 157.036, 48.089 159.506 M 195.571 156.571 C 194.707 157.436, 194 158.530, 194 159.004 C 194 159.478, 193.123 160.144, 192.051 160.484 C 190.979 160.824, 189.829 161.962, 189.496 163.013 C 188.783 165.259, 190.534 169, 192.298 169 C 192.973 169, 193.970 170.012, 194.513 171.250 C 195.848 174.292, 201.104 174.402, 202.416 171.416 C 202.919 170.269, 204.269 168.919, 205.416 168.416 C 207.989 167.285, 208.628 163.721, 206.588 161.875 C 203.493 159.073, 202.469 158.059, 201.211 156.548 C 199.564 154.571, 197.564 154.579, 195.571 156.571" stroke="none" fill="#333333" fill-rule="evenodd"/><path d="M 1.950 83.218 C 0.060 83.914, -0 85.203, 0 125.268 C 0 156.082, 0.305 166.905, 1.200 167.800 C 2.011 168.611, 6.650 169, 15.527 169 L 28.654 169 28.228 166.097 C 27.537 161.395, 30.593 152.835, 34.657 148.087 C 49.611 130.617, 77.648 140, 79.750 163.178 L 80.278 169 126.500 169 L 172.722 169 173.250 163.178 C 175.352 140, 203.389 130.617, 218.343 148.087 C 222.407 152.835, 225.463 161.395, 224.772 166.097 L 224.346 169 231.102 169 C 241.146 169, 241 169.309, 241 148.137 C 241 133.238, 239.649 115.964, 237.528 103.750 C 237.059 101.055, 237.149 101, 242.025 101 L 247 101 247 108.021 C 247 114.441, 247.204 115.136, 249.374 116.124 C 251.093 116.908, 252.328 116.895, 253.857 116.077 L 255.966 114.948 256.251 140.724 C 256.407 154.901, 256.566 147.600, 256.605 124.500 C 256.643 101.400, 256.410 84.850, 256.087 87.722 C 255.600 92.050, 255.243 92.780, 254 91.987 C 253.175 91.461, 248.838 91.024, 244.361 91.015 L 236.223 91 235.557 87.455 C 235.070 84.854, 234.174 83.627, 232.196 82.850 C 229.120 81.642, 5.260 81.999, 1.950 83.218 M 0.458 125.500 C 0.458 148.600, 0.589 157.907, 0.749 146.183 C 0.909 134.458, 0.909 115.558, 0.749 104.183 C 0.588 92.807, 0.457 102.400, 0.458 125.500 M 9 108.500 L 9 125 54 125 L 99 125 99 108.500 L 99 92 54 92 L 9 92 9 108.500 M 108 126 L 108 160 127 160 L 146 160 146 126 L 146 92 127 92 L 108 92 108 126 M 155 108.969 L 155 125.938 192.462 125.936 C 213.065 125.935, 230.131 125.597, 230.385 125.187 C 230.639 124.776, 229.997 117.928, 228.959 109.970 C 227.922 102.011, 227.056 94.713, 227.036 93.750 C 227.002 92.116, 224.605 92, 191 92 L 155 92 155 108.969 M 36.195 164.500 C 36.215 166.150, 36.439 166.704, 36.693 165.731 C 36.947 164.758, 36.930 163.408, 36.656 162.731 C 36.382 162.054, 36.175 162.850, 36.195 164.500 M 216.195 164.500 C 216.215 166.150, 216.439 166.704, 216.693 165.731 C 216.947 164.758, 216.930 163.408, 216.656 162.731 C 216.382 162.054, 216.175 162.850, 216.195 164.500" stroke="none" fill="#f9a325" fill-rule="evenodd"/><path d="M 1.950 83.218 C 0.060 83.914, -0 85.203, 0 125.268 C 0 156.082, 0.305 166.905, 1.200 167.800 C 2.011 168.611, 6.650 169, 15.527 169 L 28.654 169 28.228 166.097 C 27.537 161.395, 30.593 152.835, 34.657 148.087 C 49.611 130.617, 77.648 140, 79.750 163.178 L 80.278 169 126.500 169 L 172.722 169 173.250 163.178 C 175.352 140, 203.389 130.617, 218.343 148.087 C 222.407 152.835, 225.463 161.395, 224.772 166.097 L 224.346 169 231.102 169 C 241.146 169, 241 169.309, 241 148.137 C 241 133.238, 239.649 115.964, 237.528 103.750 C 237.059 101.055, 237.149 101, 242.025 101 L 247 101 247 108.021 C 247 114.441, 247.204 115.136, 249.374 116.124 C 251.093 116.908, 252.328 116.895, 253.857 116.077 L 255.966 114.948 256.251 140.724 C 256.407 154.901, 256.566 147.600, 256.605 124.500 C 256.643 101.400, 256.410 84.850, 256.087 87.722 C 255.600 92.050, 255.243 92.780, 254 91.987 C 253.175 91.461, 248.838 91.024, 244.361 91.015 L 236.223 91 235.557 87.455 C 235.070 84.854, 234.174 83.627, 232.196 82.850 C 229.120 81.642, 5.260 81.999, 1.950 83.218 M 0.458 125.500 C 0.458 148.600, 0.589 157.907, 0.749 146.183 C 0.909 134.458, 0.909 115.558, 0.749 104.183 C 0.588 92.807, 0.457 102.400, 0.458 125.500 M 9 108.500 L 9 125 54 125 L 99 125 99 108.500 L 99 92 54 92 L 9 92 9 108.500 M 108 126 L 108 160 127 160 L 146 160 146 126 L 146 92 127 92 L 108 92 108 126 M 155 108.969 L 155 125.938 192.462 125.936 C 213.065 125.935, 230.131 125.597, 230.385 125.187 C 230.639 124.776, 229.997 117.928, 228.959 109.970 C 227.922 102.011, 227.056 94.713, 227.036 93.750 C 227.002 92.116, 224.605 92, 191 92 L 155 92 155 108.969 M 36.195 164.500 C 36.215 166.150, 36.439 166.704, 36.693 165.731 C 36.947 164.758, 36.930 163.408, 36.656 162.731 C 36.382 162.054, 36.175 162.850, 36.195 164.500 M 216.195 164.500 C 216.215 166.150, 216.439 166.704, 216.693 165.731 C 216.947 164.758, 216.930 163.408, 216.656 162.731 C 216.382 162.054, 216.175 162.850, 216.195 164.500" stroke="none" fill="#f9a325" fill-rule="evenodd"/><path d="M 9 108.500 L 9 125 22.500 125 L 36 125 36 108.500 L 36 92 22.500 92 L 9 92 9 108.500 M 40 108.500 L 40 125 54 125 L 68 125 68 108.500 L 68 92 54 92 L 40 92 40 108.500 M 72 108.500 L 72 125 85.500 125 L 99 125 99 108.500 L 99 92 85.500 92 L 72 92 72 108.500 M 108 126 L 108 160 116.500 160 L 125 160 125 126 L 125 92 116.500 92 L 108 92 108 126 M 129 126 L 129 160 137.500 160 L 146 160 146 126 L 146 92 137.500 92 L 129 92 129 126 M 155 109 L 155 126 173 126 L 191 126 191 109 L 191 92 173 92 L 155 92 155 109 M 195 109 L 195 126 212.441 126 C 222.034 126, 230.099 125.649, 230.364 125.220 C 230.629 124.791, 229.997 117.928, 228.959 109.970 C 227.922 102.011, 227.056 94.713, 227.036 93.750 C 227.003 92.158, 225.558 92, 211 92 L 195 92 195 109 M 48.914 147.956 C 44.531 149.284, 41.478 151.805, 39.075 156.080 C 36.079 161.411, 36.450 170.014, 39.885 174.838 C 48.397 186.792, 67.747 182.806, 71.027 168.423 C 72.806 160.623, 68.924 152.594, 61.677 149.086 C 57.232 146.934, 53.404 146.595, 48.914 147.956 M 191.240 149.050 C 184.010 152.731, 180.207 160.681, 181.973 168.423 C 185.253 182.806, 204.603 186.792, 213.115 174.838 C 216.563 169.997, 216.922 161.412, 213.902 156.039 C 209.400 148.029, 199.339 144.926, 191.240 149.050 M 50.750 156.060 C 49.788 156.632, 49 157.700, 49 158.433 C 49 159.167, 48.120 159.997, 47.046 160.278 C 43.252 161.270, 43.553 169, 47.385 169 C 48.013 169, 48.970 170.012, 49.513 171.250 C 51.174 175.036, 54.604 174.631, 59.118 170.118 C 63.566 165.669, 64.042 162.177, 60.416 160.584 C 59.269 160.081, 57.919 158.731, 57.416 157.584 C 56.375 155.216, 53.339 154.522, 50.750 156.060 M 195.243 156.157 C 194.559 156.841, 194 157.878, 194 158.463 C 194 159.047, 192.988 159.970, 191.750 160.513 C 188.708 161.848, 188.598 167.104, 191.584 168.416 C 192.731 168.919, 194.081 170.269, 194.584 171.416 C 195.219 172.861, 196.419 173.500, 198.500 173.500 C 200.581 173.500, 201.781 172.861, 202.416 171.416 C 202.919 170.269, 204.269 168.919, 205.416 168.416 C 206.861 167.781, 207.500 166.581, 207.500 164.500 C 207.500 162.419, 206.861 161.219, 205.416 160.584 C 204.269 160.081, 202.919 158.731, 202.416 157.584 C 201.360 155.180, 197.073 154.327, 195.243 156.157" stroke="none" fill="#a4f2f1" fill-rule="evenodd"/></svg>