<svg id="svg" version="1.1" xmlns="http://www.w3.org/2000/svg" xmlns:xlink="http://www.w3.org/1999/xlink" width="400" height="400" viewBox="0, 0, 400,400"><g id="svgg"><path id="path0" d="M131.250 1.213 C 69.627 14.428,52.155 94.538,102.616 132.500 C 105.130 134.391,106.750 135.937,106.216 135.937 C 104.261 135.938,91.651 141.748,86.623 144.966 C 69.722 155.783,53.988 180.338,53.894 196.046 C 53.872 199.756,53.508 199.853,38.667 200.129 C 17.116 200.530,6.948 206.669,1.615 222.501 C -0.915 230.010,-0.915 369.990,1.615 377.499 C 4.964 387.442,12.526 395.086,22.358 398.469 C 29.347 400.874,370.653 400.874,377.642 398.469 C 387.492 395.080,395.035 387.444,398.401 377.453 C 400.014 372.664,400.029 371.854,399.820 298.612 L 399.609 224.609 397.158 219.435 C 390.222 204.796,380.942 200.000,359.556 200.000 L 346.406 200.000 345.454 195.387 C 343.069 183.841,333.246 171.083,322.521 165.600 L 317.307 162.936 320.392 159.589 C 348.830 128.737,328.235 80.109,286.719 80.084 C 245.724 80.059,224.205 128.639,251.989 158.488 L 255.965 162.760 251.225 165.167 C 248.505 166.549,244.006 169.981,240.669 173.220 C 237.471 176.325,234.834 178.786,234.810 178.690 C 231.128 164.204,210.415 144.385,191.905 137.636 L 186.032 135.495 189.597 133.240 C 206.512 122.539,218.965 99.375,220.068 76.563 C 222.385 28.659,178.172 -8.849,131.250 1.213 M163.672 16.396 C 209.103 30.740,221.014 89.099,184.635 119.106 C 143.691 152.878,82.521 120.091,87.642 67.118 C 91.138 30.955,129.251 5.529,163.672 16.396 M293.126 94.616 C 311.024 98.361,322.870 116.977,318.426 134.375 C 310.725 164.527,270.047 168.294,256.843 140.078 C 245.744 116.359,267.393 89.232,293.126 94.616 M181.474 149.064 C 204.191 155.292,225.537 179.368,225.770 199.023 C 225.779 199.798,209.485 200.000,146.875 200.000 L 67.969 200.000 67.969 197.697 C 67.969 180.673,87.877 157.030,107.797 150.396 C 119.883 146.371,168.449 145.493,181.474 149.064 M310.338 175.636 C 320.407 179.266,332.026 191.792,332.031 199.023 C 332.031 199.793,322.431 200.000,286.634 200.000 L 241.237 200.000 241.749 197.852 C 244.426 186.633,256.353 176.167,268.674 174.225 C 277.282 172.868,305.292 173.817,310.338 175.636 M372.956 215.013 C 377.248 216.280,383.720 222.752,384.987 227.044 C 386.213 231.191,386.359 368.373,385.143 372.752 C 384.094 376.527,378.904 382.296,374.745 384.310 L 371.382 385.938 200.000 385.937 L 28.618 385.937 25.255 384.310 C 21.045 382.272,16.187 376.833,14.981 372.807 C 13.642 368.336,13.671 231.584,15.013 227.044 C 16.188 223.064,22.728 216.293,26.563 215.084 C 30.699 213.780,368.549 213.711,372.956 215.013 M99.219 227.249 C 91.735 229.704,85.321 235.244,82.285 241.877 L 80.354 246.094 72.951 246.094 C 64.202 246.094,61.484 247.149,60.198 251.046 C 58.059 257.525,61.317 260.037,72.233 260.323 L 80.732 260.547 81.900 264.063 C 88.963 285.328,123.512 285.066,131.677 263.685 L 133.025 260.156 234.736 260.156 L 336.446 260.156 338.029 258.398 C 340.335 255.837,340.777 253.999,339.800 251.039 C 338.061 245.769,345.018 246.094,233.740 246.094 L 133.027 246.094 130.543 241.048 C 125.191 230.177,110.296 223.615,99.219 227.249 M112.231 241.907 C 123.437 247.225,120.709 264.138,108.320 266.148 C 104.431 266.779,100.493 265.189,97.361 261.722 C 88.011 251.372,99.608 235.917,112.231 241.907 M268.750 273.485 C 259.199 275.071,249.949 282.802,248.007 290.820 L 247.487 292.969 155.818 292.969 L 64.150 292.969 61.975 294.839 C 58.877 297.504,58.877 302.496,61.975 305.161 L 64.150 307.031 155.720 307.031 L 247.290 307.031 248.666 310.907 C 256.056 331.715,289.177 331.951,297.754 311.258 L 299.506 307.031 317.678 307.031 C 338.900 307.031,340.199 306.626,340.199 300.000 C 340.199 293.372,338.905 292.969,317.641 292.969 L 299.431 292.969 298.015 289.260 C 293.941 278.594,280.763 271.490,268.750 273.485 M278.516 288.487 C 289.460 293.886,287.904 309.418,276.117 312.422 C 269.661 314.068,262.765 309.913,260.985 303.302 C 258.181 292.888,268.964 283.775,278.516 288.487 M179.632 320.550 C 171.437 322.873,164.407 329.042,161.896 336.114 L 160.571 339.844 112.062 339.844 L 63.554 339.844 61.971 341.602 C 59.665 344.163,59.223 346.001,60.200 348.961 C 61.876 354.040,60.449 353.906,113.047 353.909 L 160.547 353.912 162.070 357.620 C 170.630 378.466,203.349 378.464,211.297 357.617 L 212.712 353.906 273.582 353.906 C 340.913 353.906,338.098 354.116,339.800 348.961 C 340.777 346.001,340.335 344.163,338.029 341.602 L 336.446 339.844 274.558 339.844 L 212.669 339.844 212.139 337.695 C 209.155 325.615,192.588 316.877,179.632 320.550 M191.470 334.882 C 198.549 337.715,201.589 347.033,197.442 353.186 C 192.327 360.776,183.401 361.556,177.221 354.953 C 168.110 345.216,178.991 329.889,191.470 334.882 " stroke="none" fill="#000000" fill-rule="evenodd"></path></g></svg>