<svg id="svg" version="1.1" xmlns="http://www.w3.org/2000/svg" xmlns:xlink="http://www.w3.org/1999/xlink" width="400" height="400" viewBox="0, 0, 400,400"><g id="svgg"><path id="path0" d="M343.750 12.500 L 343.750 18.750 357.616 18.750 L 371.481 18.750 348.264 41.967 L 325.048 65.183 317.321 57.592 C 305.109 45.594,312.931 41.157,256.043 92.353 L 240.601 106.250 231.162 106.250 L 221.724 106.250 216.526 101.484 C 186.954 74.372,138.066 74.354,108.519 101.443 L 103.366 106.168 78.441 106.404 L 53.516 106.641 48.828 108.939 C 42.846 111.872,36.872 117.846,33.939 123.828 L 31.641 128.516 31.434 229.883 L 31.227 331.250 28.533 331.250 C 1.106 331.250,-1.485 373.918,25.011 389.246 C 33.333 394.059,21.310 393.750,200.000 393.750 C 378.690 393.750,366.667 394.059,374.989 389.246 C 401.485 373.918,398.894 331.250,371.467 331.250 L 368.773 331.250 368.566 229.883 L 368.359 128.516 366.061 123.828 C 363.128 117.846,357.154 111.872,351.172 108.939 L 346.484 106.641 303.704 106.420 L 260.924 106.199 283.391 85.963 L 305.859 65.728 313.754 73.489 C 321.316 80.923,321.792 81.250,325.055 81.250 L 328.462 81.250 354.856 54.898 L 381.250 28.546 381.250 42.398 L 381.250 56.250 387.500 56.250 L 393.750 56.250 393.750 32.812 C 393.750 2.796,397.204 6.250,367.188 6.250 L 343.750 6.250 343.750 12.500 M180.806 96.808 C 227.593 109.662,246.201 168.402,215.287 205.655 C 174.567 254.723,94.498 226.171,94.537 162.595 C 94.564 117.332,137.191 84.826,180.806 96.808 M147.836 107.824 C 112.997 116.952,95.814 156.726,112.642 189.286 C 132.895 228.473,192.105 228.473,212.358 189.286 C 235.098 145.287,195.528 95.328,147.836 107.824 M92.839 119.336 C 92.695 119.658,91.348 122.451,89.844 125.542 L 87.109 131.162 73.242 131.206 C 60.449 131.247,59.254 131.371,57.813 132.813 C 55.351 135.274,55.351 314.726,57.812 317.187 C 60.279 319.654,339.721 319.654,342.187 317.188 C 344.649 314.726,344.649 135.274,342.188 132.813 C 340.658 131.283,339.553 131.249,289.258 131.206 L 237.891 131.162 235.156 125.542 C 233.652 122.451,232.299 119.643,232.150 119.301 C 232.000 118.960,256.610 118.784,286.837 118.911 C 348.250 119.168,344.334 118.809,350.320 124.726 C 356.291 130.628,355.834 122.041,356.072 232.617 L 356.285 331.250 200.000 331.250 L 43.715 331.250 43.928 232.617 C 44.140 134.228,44.145 133.976,45.784 130.469 C 48.595 124.453,53.569 120.544,59.766 119.482 C 64.082 118.741,93.160 118.613,92.839 119.336 M173.335 120.666 C 208.792 130.103,217.169 177.332,187.030 197.881 C 159.003 216.990,121.370 198.569,119.699 164.923 C 118.240 135.539,145.307 113.206,173.335 120.666 M163.096 152.132 L 150.027 165.202 146.096 161.331 L 142.166 157.459 137.294 162.343 L 132.422 167.227 139.535 174.239 C 150.481 185.027,149.279 185.398,169.880 164.864 L 186.319 148.477 181.660 143.770 C 175.914 137.963,178.373 136.856,163.096 152.132 M82.274 147.461 C 71.366 211.331,133.659 262.060,193.455 238.000 L 200.391 235.209 224.609 259.362 C 253.033 287.708,253.335 287.919,264.724 287.341 C 278.574 286.639,286.639 278.574,287.341 264.724 C 287.919 253.330,287.714 253.038,259.310 224.568 L 235.106 200.308 237.113 195.770 C 242.851 182.795,245.244 162.204,242.726 147.461 L 242.092 143.750 286.671 143.750 L 331.250 143.750 331.250 225.000 L 331.250 306.250 200.000 306.250 L 68.750 306.250 68.750 225.000 L 68.750 143.750 75.829 143.750 L 82.908 143.750 82.274 147.461 M250.551 235.352 C 265.670 250.516,273.514 258.940,273.871 260.394 C 276.019 269.138,266.556 277.234,258.919 273.185 C 257.666 272.521,246.690 262.002,234.527 249.808 L 212.414 227.638 219.684 220.175 C 223.682 216.070,227.137 212.664,227.361 212.606 C 227.586 212.548,238.021 222.783,250.551 235.352 M81.250 287.500 L 81.250 293.750 87.500 293.750 L 93.750 293.750 93.750 287.500 L 93.750 281.250 87.500 281.250 L 81.250 281.250 81.250 287.500 M106.250 287.500 L 106.250 293.750 112.500 293.750 L 118.750 293.750 118.750 287.500 L 118.750 281.250 112.500 281.250 L 106.250 281.250 106.250 287.500 M131.250 287.500 L 131.250 293.750 137.500 293.750 L 143.750 293.750 143.750 287.500 L 143.750 281.250 137.500 281.250 L 131.250 281.250 131.250 287.500 M151.583 355.539 C 154.795 362.022,158.014 367.647,158.738 368.039 C 159.480 368.440,177.471 368.750,200.000 368.750 C 222.529 368.750,240.520 368.440,241.262 368.039 C 241.986 367.647,245.211 362.012,248.428 355.515 L 254.278 343.703 312.881 343.922 C 370.389 344.137,371.535 344.171,374.216 345.745 C 388.275 354.004,378.221 377.356,359.284 380.429 C 352.382 381.549,47.628 381.550,40.726 380.431 C 19.742 377.026,10.654 348.896,29.121 344.509 C 30.507 344.179,57.314 343.874,88.693 343.830 L 145.745 343.750 151.583 355.539 M239.063 344.128 C 239.063 344.335,237.755 347.148,236.157 350.378 L 233.251 356.250 200.000 356.250 L 166.749 356.250 163.843 350.378 C 162.245 347.148,160.938 344.335,160.938 344.128 C 160.938 343.920,178.516 343.750,200.000 343.750 C 221.484 343.750,239.063 343.920,239.063 344.128 " stroke="none" fill="#000000" fill-rule="evenodd"></path></g></svg>