<svg xmlns="http://www.w3.org/2000/svg" width="256" height="256" viewBox="0 0 256 256" version="1.1"><path d="M 110.873 1.684 C 106.516 4.387, 105 8.059, 105 15.904 L 105 23 109 23 L 113 23 113 17.155 C 113 8.573, 113.949 8, 128.174 8 C 142.081 8, 143 8.578, 143 17.329 L 143 23 147 23 L 151 23 151 15.382 C 151 7.867, 150.948 7.713, 147.118 3.882 L 143.235 0 128.368 0.027 C 116.397 0.048, 112.988 0.371, 110.873 1.684 M 1.200 91.200 C 0.305 92.095, 0 102.992, 0 134.065 C 0 174.819, 0.046 175.788, 2.091 178.388 C 4.839 181.882, 36.999 201, 40.128 201 C 43.383 201, 46.661 198.568, 48.634 194.689 C 51.338 189.372, 77.215 145.614, 78.656 143.921 C 80.815 141.385, 80.328 135.652, 77.750 133.267 C 74.048 129.841, 6.458 90, 4.348 90 C 3.277 90, 1.860 90.540, 1.200 91.200 M 216 110.019 C 197.575 121.005, 181.037 131.139, 179.250 132.539 C 175.121 135.774, 174.825 140.683, 178.442 145.946 C 179.785 147.901, 186.922 159.850, 194.301 172.500 C 208.981 197.665, 211.471 201, 215.586 201 C 218.976 201, 250.973 182.121, 253.909 178.388 C 255.954 175.788, 256 174.819, 256 134.065 C 256 90.298, 255.967 89.974, 251.550 90.023 C 250.422 90.035, 234.425 99.034, 216 110.019" stroke="none" fill="#3f6c8c" fill-rule="evenodd"/><path d="M 79.370 23.487 C 73.026 26.154, 73 26.301, 73 59.707 L 73 89.968 75.918 93.234 L 78.836 96.500 128 96.500 L 177.164 96.500 180.082 93.234 L 183 89.968 183 59.619 C 183 30.705, 182.905 29.148, 180.984 26.707 C 179.876 25.298, 177.513 23.687, 175.734 23.128 C 170.589 21.510, 83.298 21.835, 79.370 23.487 M 106 144.159 C 94.752 148.427, 92.039 148.622, 85.512 145.634 C 82.036 144.043, 79.283 143.317, 78.749 143.851 C 78.254 144.346, 71.356 155.720, 63.421 169.126 C 47.647 195.774, 48.251 193.824, 54.610 197.595 C 56.339 198.621, 56.218 199.036, 52.728 204.104 C 50.020 208.036, 49 210.562, 49 213.336 C 49 220.480, 56.864 225.284, 63.098 221.948 C 64.835 221.018, 65 221.164, 64.509 223.198 C 64.200 224.479, 64.740 227.052, 65.727 229 C 67.762 233.017, 72.781 235.210, 77.101 233.971 C 79.601 233.254, 79.816 233.447, 80.370 236.910 C 81.550 244.292, 89.095 247.911, 95.467 244.152 L 99 242.067 99 244.897 C 99 248.298, 102.924 252.561, 106.724 253.288 C 109.944 253.903, 113.727 252.591, 116.665 249.839 L 118.829 247.812 125.839 251.906 C 134.664 257.060, 138.836 257.318, 143.176 252.978 C 145.783 250.371, 146.150 249.356, 145.849 245.587 L 145.500 241.217 149.992 243.609 C 156.177 246.901, 160.412 246.742, 164.077 243.077 C 167.184 239.970, 167.919 235.585, 165.949 231.905 C 164.918 229.979, 164.970 229.980, 168.684 231.971 C 173.412 234.505, 175.641 234.516, 179.723 232.027 C 183.299 229.847, 184.522 226.606, 183.694 221.504 L 183.145 218.117 186.322 220.055 C 196.329 226.156, 206.747 217.146, 201.474 206.950 C 200.635 205.328, 199.510 204, 198.974 204 C 196.733 204, 198.314 202.237, 203.022 199.487 C 206.358 197.539, 207.859 196.074, 207.493 195.122 C 206.567 192.707, 178.830 146.013, 178.028 145.517 C 177.614 145.262, 175.402 145.789, 173.111 146.689 C 168.500 148.500, 165.876 148.120, 154.282 143.965 L 148.063 141.736 137.933 144.276 L 127.803 146.817 122.651 144.418 C 116.379 141.497, 113.147 141.447, 106 144.159" stroke="none" fill="#e9c4ac" fill-rule="evenodd"/></svg>