<svg id="svg" version="1.1" xmlns="http://www.w3.org/2000/svg" xmlns:xlink="http://www.w3.org/1999/xlink" width="400" height="400" viewBox="0, 0, 400,400"><g id="svgg"><path id="path0" d="M256.396 2.432 C 249.584 5.389,193.940 60.417,192.678 65.445 C 191.479 70.223,193.684 73.801,198.991 75.693 C 202.899 77.085,204.797 75.512,233.370 47.177 L 263.611 17.188 271.232 17.188 L 278.853 17.188 330.052 68.386 L 381.250 119.584 381.250 126.572 L 381.250 133.560 300.391 214.347 C 209.051 305.604,212.678 302.885,198.438 290.789 L 192.969 286.144 212.830 266.119 C 240.654 238.066,244.753 223.159,229.222 206.510 C 213.214 189.348,195.500 193.175,168.775 219.571 C 146.337 241.732,148.730 241.800,125.584 218.359 C 92.609 184.965,92.250 187.755,134.993 145.331 C 159.830 120.680,162.654 116.404,157.500 111.250 C 151.740 105.490,147.247 108.430,119.191 136.321 C 74.727 180.522,73.325 190.724,107.020 224.917 L 123.312 241.450 114.871 245.869 C 94.807 256.374,79.688 281.293,79.688 303.856 C 79.688 310.036,78.802 311.064,40.625 349.219 C 0.645 389.174,-2.015 392.673,3.438 398.125 C 9.701 404.388,13.058 401.874,55.710 358.984 L 96.497 317.969 97.325 304.993 C 99.201 275.618,120.578 254.688,148.706 254.688 L 158.232 254.687 178.906 234.375 C 202.546 211.148,206.552 209.436,215.745 218.630 C 224.887 227.772,223.804 229.726,191.406 262.541 C 161.310 293.026,159.630 295.568,165.625 301.563 C 169.546 305.484,171.988 305.496,176.915 301.620 L 180.814 298.553 184.422 302.394 C 202.491 321.627,220.689 318.335,248.928 290.724 C 263.769 276.212,268.487 272.353,267.162 275.808 C 266.179 278.371,261.964 289.717,257.797 301.020 C 241.372 345.564,239.216 347.386,184.922 362.589 L 150.781 372.149 142.578 380.162 C 136.866 385.742,134.375 389.400,134.375 392.212 C 134.375 402.062,144.521 402.929,153.847 393.875 C 159.718 388.176,162.329 387.137,191.406 378.930 C 253.189 361.492,254.684 359.981,281.258 288.049 L 298.480 241.430 346.041 193.762 C 416.961 122.681,417.119 130.588,343.304 56.534 C 283.942 -3.019,277.786 -6.851,256.396 2.432 M260.160 58.624 C 233.131 73.223,242.798 112.402,273.438 112.440 C 300.932 112.474,311.264 77.122,288.655 60.373 C 282.831 56.058,266.738 55.070,260.160 58.624 M281.789 78.512 C 284.341 81.946,284.681 83.658,283.485 87.058 C 280.163 96.506,267.787 97.775,263.315 89.128 C 257.025 76.963,273.570 67.456,281.789 78.512 M169.643 86.830 C 165.130 91.343,169.147 101.563,175.434 101.563 C 182.348 101.563,187.231 90.981,182.500 86.250 C 179.845 83.595,172.549 83.925,169.643 86.830 M293.902 160.032 C 248.816 205.228,247.036 207.657,255.202 212.851 C 261.471 216.839,264.445 214.482,307.433 171.474 C 351.006 127.878,353.600 124.538,348.125 119.062 C 341.837 112.775,338.621 115.205,293.902 160.032 M155.761 160.719 C 139.201 177.574,137.245 182.088,144.455 186.812 C 150.094 190.507,152.627 189.002,169.257 172.076 C 185.067 155.983,185.906 154.443,181.943 148.785 C 177.039 141.784,172.194 143.992,155.761 160.719 " stroke="none" fill="#000000" fill-rule="evenodd"></path></g></svg>