<svg id="svg" version="1.1" xmlns="http://www.w3.org/2000/svg" xmlns:xlink="http://www.w3.org/1999/xlink" width="400" height="400" viewBox="0, 0, 400,400"><g id="svgg"><path id="path0" d="M24.916 1.835 C 15.554 5.695,10.064 10.788,5.988 19.391 L 3.516 24.609 3.307 138.232 C 3.119 240.861,3.221 252.275,4.360 256.191 C 7.408 266.676,15.089 274.743,25.531 278.427 L 28.746 279.562 30.420 272.886 C 31.341 269.214,31.993 266.121,31.868 266.013 C 31.743 265.905,30.187 265.084,28.411 264.189 C 24.363 262.148,20.978 258.799,19.060 254.938 C 17.629 252.055,17.571 248.157,17.375 140.788 L 17.172 29.623 18.835 25.756 C 19.751 23.629,21.856 20.663,23.513 19.165 C 29.628 13.640,17.497 14.063,170.161 14.062 L 308.100 14.062 311.463 15.690 C 318.899 19.290,322.644 25.871,322.652 35.352 L 322.656 40.625 329.688 40.625 L 336.719 40.625 336.719 33.716 C 336.719 19.700,329.884 8.739,317.284 2.549 L 312.891 0.391 171.094 0.209 L 29.297 0.028 24.916 1.835 M29.688 33.594 L 29.688 40.625 36.719 40.625 L 43.750 40.625 43.750 33.594 L 43.750 26.563 36.719 26.563 L 29.688 26.563 29.688 33.594 M56.250 33.594 L 56.250 40.625 63.281 40.625 L 70.313 40.625 70.313 33.594 L 70.313 26.563 63.281 26.563 L 56.250 26.563 56.250 33.594 M82.813 33.594 L 82.813 40.625 89.844 40.625 L 96.875 40.625 96.875 33.594 L 96.875 26.563 89.844 26.563 L 82.813 26.563 82.813 33.594 M66.091 54.677 C 55.001 58.232,46.176 67.988,43.748 79.378 C 43.198 81.961,43.002 119.741,43.146 195.703 L 43.359 308.203 46.178 314.105 C 50.747 323.672,59.049 330.509,68.840 332.766 C 70.936 333.249,90.085 333.563,118.164 333.575 L 164.063 333.594 164.063 326.563 L 164.063 319.531 118.867 319.531 C 86.660 319.531,72.907 319.271,71.015 318.626 C 66.244 317.000,62.134 313.586,59.736 309.256 L 57.422 305.078 57.422 193.359 C 57.422 67.977,56.903 79.087,63.049 72.941 C 68.932 67.057,54.678 67.602,208.820 67.374 L 346.936 67.170 350.805 68.835 C 355.067 70.668,359.603 75.183,361.599 79.578 C 362.777 82.172,362.909 91.942,363.102 190.557 C 363.325 304.480,363.312 304.938,359.715 310.373 L 357.718 313.391 361.425 316.657 C 369.055 323.375,368.309 323.188,371.126 319.094 C 372.487 317.115,374.355 313.504,375.277 311.069 L 376.953 306.641 377.173 196.875 C 377.321 122.476,377.125 85.380,376.565 81.742 C 374.836 70.518,368.217 61.514,357.977 56.452 L 352.035 53.516 211.369 53.357 C 75.281 53.203,70.553 53.246,66.091 54.677 M69.531 86.719 L 69.531 93.750 76.563 93.750 L 83.594 93.750 83.594 86.719 L 83.594 79.688 76.563 79.688 L 69.531 79.688 69.531 86.719 M96.094 86.719 L 96.094 93.750 103.125 93.750 L 110.156 93.750 110.156 86.719 L 110.156 79.688 103.125 79.688 L 96.094 79.688 96.094 86.719 M122.656 86.719 L 122.656 93.750 129.688 93.750 L 136.719 93.750 136.719 86.719 L 136.719 79.688 129.688 79.688 L 122.656 79.688 122.656 86.719 M269.531 137.166 L 269.531 168.081 265.039 167.593 C 262.568 167.325,259.756 166.941,258.789 166.741 L 257.031 166.376 257.031 142.954 L 257.031 119.531 250.000 119.531 L 242.969 119.531 242.969 142.954 L 242.969 166.376 241.211 166.741 C 240.244 166.941,237.432 167.325,234.961 167.593 L 230.469 168.081 230.469 157.087 L 230.469 146.094 223.438 146.094 L 216.406 146.094 216.406 159.259 L 216.406 172.424 210.742 175.039 C 207.627 176.477,204.814 177.789,204.492 177.955 C 204.170 178.120,203.906 169.613,203.906 159.049 L 203.906 139.844 196.875 139.844 L 189.844 139.844 189.844 163.886 L 189.844 187.927 183.594 194.141 L 177.344 200.354 177.344 176.739 L 177.344 153.125 170.313 153.125 L 163.281 153.125 163.281 188.627 L 163.281 224.130 160.922 231.172 C 157.529 241.300,156.014 252.345,156.491 263.477 L 156.884 272.656 113.208 272.656 L 69.531 272.656 69.531 279.688 L 69.531 286.719 114.739 286.719 L 159.947 286.719 161.704 291.602 C 181.537 346.712,247.706 370.646,297.499 340.720 L 303.760 336.956 335.275 368.478 L 366.790 400.000 370.254 400.000 C 375.639 400.000,396.875 378.784,396.875 373.405 L 396.875 369.965 364.507 337.522 L 332.139 305.078 333.996 301.563 C 335.018 299.629,336.798 295.498,337.953 292.383 L 340.053 286.719 345.027 286.719 L 350.000 286.719 350.000 279.688 L 350.000 272.656 346.558 272.656 L 343.116 272.656 343.509 263.477 C 343.986 252.345,342.471 241.300,339.078 231.172 L 336.719 224.130 336.719 191.752 L 336.719 159.375 329.688 159.375 L 322.656 159.375 322.656 179.864 L 322.656 200.354 316.406 194.141 L 310.156 187.927 310.156 160.370 L 310.156 132.813 303.125 132.813 L 296.094 132.813 296.094 155.534 C 296.094 168.031,295.830 178.120,295.508 177.955 C 295.186 177.789,292.373 176.477,289.258 175.039 L 283.594 172.424 283.594 139.337 L 283.594 106.250 276.563 106.250 L 269.531 106.250 269.531 137.166 M109.375 219.922 L 109.375 260.156 116.406 260.156 L 123.438 260.156 123.438 219.922 L 123.438 179.688 116.406 179.688 L 109.375 179.688 109.375 219.922 M268.887 182.698 C 329.687 198.748,350.060 274.358,305.093 317.072 C 253.868 365.731,170.574 329.951,170.778 259.375 C 170.924 208.526,220.362 169.889,268.887 182.698 M235.938 194.482 C 186.903 204.848,166.318 264.750,198.622 303.070 C 229.536 339.741,288.551 332.926,309.765 290.234 C 334.815 239.824,290.898 182.864,235.938 194.482 M135.938 230.078 L 135.938 260.156 142.969 260.156 L 150.000 260.156 150.000 230.078 L 150.000 200.000 142.969 200.000 L 135.938 200.000 135.938 230.078 M242.969 233.984 L 242.969 260.156 250.000 260.156 L 257.031 260.156 257.031 233.916 L 257.031 207.675 260.313 208.230 C 262.118 208.535,264.842 209.216,266.368 209.744 L 269.141 210.704 269.347 235.430 L 269.553 260.156 276.573 260.156 L 283.594 260.156 283.628 239.648 L 283.661 219.141 288.613 224.403 C 299.659 236.143,304.802 253.128,302.101 268.945 L 301.467 272.656 250.000 272.656 L 198.533 272.656 197.899 268.945 C 195.028 252.134,200.904 234.245,213.221 222.302 L 216.406 219.214 216.406 239.685 L 216.406 260.156 223.438 260.156 L 230.469 260.156 230.469 235.593 C 230.469 222.010,230.781 210.837,231.167 210.598 C 232.180 209.972,239.995 207.924,241.602 207.864 C 242.877 207.816,242.969 209.560,242.969 233.984 M82.813 239.844 L 82.813 260.156 89.844 260.156 L 96.875 260.156 96.875 239.844 L 96.875 219.531 89.844 219.531 L 82.813 219.531 82.813 239.844 M293.989 289.183 C 276.534 319.660,223.466 319.660,206.011 289.183 L 204.599 286.719 250.000 286.719 L 295.401 286.719 293.989 289.183 M352.342 345.701 L 380.066 373.434 375.188 378.313 L 370.309 383.191 342.639 355.530 L 314.970 327.868 319.342 322.919 C 321.747 320.196,323.918 317.969,324.166 317.969 C 324.415 317.969,337.094 330.448,352.342 345.701 " stroke="none" fill="#000000" fill-rule="evenodd"></path></g></svg>