<svg id="svg" version="1.1" xmlns="http://www.w3.org/2000/svg" xmlns:xlink="http://www.w3.org/1999/xlink" width="400" height="400" viewBox="0, 0, 400,400"><g id="svgg"><path id="path0" d="M8.203 1.301 C -0.267 5.776,0.000 4.104,-0.000 52.734 C -0.000 108.789,-1.817 105.469,28.867 105.469 L 46.875 105.469 46.875 148.381 L 46.875 191.293 48.933 192.912 C 50.954 194.501,51.716 194.531,90.340 194.531 L 129.688 194.531 129.688 206.641 L 129.688 218.750 125.781 218.750 C 122.776 218.750,121.875 218.471,121.875 217.541 C 121.875 213.570,111.668 207.031,105.469 207.031 C 85.762 207.031,80.913 236.435,99.700 242.014 C 108.176 244.531,121.875 238.628,121.875 232.459 C 121.875 231.532,122.770 231.250,125.715 231.250 L 129.556 231.250 129.817 244.400 C 130.123 259.833,131.349 263.054,138.628 267.557 L 142.450 269.922 158.334 270.175 L 174.219 270.428 174.219 304.745 L 174.219 339.063 139.844 339.063 L 105.469 339.063 105.469 322.235 C 105.469 304.313,105.005 301.799,101.060 298.336 C 96.653 294.469,97.444 294.531,52.734 294.531 C -5.930 294.531,-0.000 288.601,0.000 347.266 C 0.000 395.995,-0.264 394.367,8.360 398.734 C 12.150 400.653,93.319 400.653,97.109 398.734 C 104.924 394.776,105.469 392.928,105.469 370.344 L 105.469 351.563 144.176 351.563 L 182.884 351.562 184.801 349.645 L 186.719 347.727 186.719 309.020 L 186.719 270.313 202.344 270.313 L 217.969 270.313 217.969 283.203 C 217.969 294.317,217.802 296.094,216.760 296.094 C 212.789 296.094,206.250 306.301,206.250 312.500 C 206.250 332.207,235.653 337.056,241.233 318.269 C 243.750 309.793,237.847 296.094,231.678 296.094 C 230.636 296.094,230.469 294.323,230.469 283.268 L 230.469 270.442 243.945 270.182 C 268.324 269.712,270.313 266.909,270.313 233.013 L 270.313 211.719 305.859 211.719 L 341.406 211.719 341.406 253.125 L 341.406 294.531 323.406 294.531 C 296.522 294.531,294.531 296.060,294.531 316.701 C 294.531 329.035,295.423 331.250,300.391 331.250 C 305.027 331.250,306.101 328.944,306.382 318.390 C 306.558 311.754,306.963 308.346,307.656 307.654 C 309.147 306.166,385.387 306.168,386.875 307.656 C 388.365 309.146,388.365 385.385,386.875 386.875 C 385.387 388.363,309.147 388.365,307.656 386.877 C 306.898 386.120,306.542 380.813,306.250 365.914 C 305.814 343.670,305.836 343.750,300.241 343.750 C 294.653 343.750,294.531 344.269,294.531 368.000 C 294.531 393.222,294.935 394.705,302.891 398.734 C 307.025 400.828,387.882 400.634,392.023 398.521 C 400.190 394.353,400.000 395.571,400.000 347.273 C 400.000 291.292,401.747 294.531,371.547 294.531 L 353.954 294.531 353.735 248.849 L 353.516 203.167 351.737 201.388 L 349.958 199.609 310.135 199.387 L 270.313 199.164 270.313 189.817 L 270.313 180.469 283.789 180.493 L 297.266 180.518 299.334 183.929 C 308.610 199.225,331.641 192.302,331.641 174.219 C 331.641 156.135,308.610 149.213,299.334 164.508 L 297.266 167.919 283.856 167.944 L 270.447 167.969 270.184 155.209 C 269.743 133.759,266.118 130.243,244.010 129.818 L 230.469 129.558 230.469 94.076 L 230.469 58.594 262.500 58.594 L 294.531 58.594 294.531 76.601 C 294.531 107.286,291.211 105.469,347.266 105.469 C 405.930 105.469,400.000 111.399,400.000 52.734 C 400.000 -5.930,405.930 0.000,347.266 0.000 C 291.211 0.000,294.531 -1.817,294.531 28.867 L 294.531 46.875 257.843 46.875 L 221.155 46.875 219.562 48.585 C 218.002 50.259,217.969 51.122,217.969 89.991 L 217.969 129.688 202.344 129.688 L 186.719 129.688 186.719 118.359 C 186.719 108.656,186.892 107.031,187.928 107.031 C 191.899 107.031,198.438 96.824,198.438 90.625 C 198.437 70.918,169.034 66.069,163.455 84.856 C 160.938 93.332,166.841 107.031,173.010 107.031 C 174.045 107.031,174.219 108.650,174.219 118.302 L 174.219 129.572 158.334 129.825 L 142.450 130.078 138.628 132.443 C 136.265 133.905,133.905 136.265,132.443 138.629 L 130.078 142.450 129.834 162.241 L 129.590 182.031 94.092 182.031 L 58.594 182.031 58.594 143.750 L 58.594 105.469 76.594 105.469 C 103.456 105.469,105.469 103.929,105.469 83.378 C 105.469 70.810,104.623 68.720,99.559 68.775 C 94.774 68.827,94.182 70.098,93.750 81.244 C 93.488 88.021,93.026 91.663,92.344 92.345 C 90.853 93.834,14.614 93.832,13.125 92.344 C 11.635 90.854,11.635 14.615,13.125 13.125 C 14.614 11.636,90.853 11.635,92.344 13.124 C 93.109 13.888,93.417 18.927,93.593 33.605 L 93.826 53.071 95.847 54.661 C 98.422 56.686,100.809 56.677,103.410 54.631 L 105.469 53.012 105.469 31.936 C 105.469 -2.356,109.356 -0.011,52.570 0.031 C 15.760 0.059,10.256 0.216,8.203 1.301 M386.876 13.125 C 388.365 14.615,388.364 90.854,386.875 92.344 C 385.386 93.833,309.146 93.834,307.656 92.344 C 306.859 91.547,306.592 83.499,306.414 54.844 C 306.167 15.146,306.258 13.551,308.832 12.497 C 311.722 11.314,385.660 11.909,386.876 13.125 M25.841 25.841 L 23.438 28.245 23.438 52.734 L 23.438 77.224 25.841 79.627 L 28.245 82.031 52.734 82.031 L 77.224 82.031 79.627 79.627 L 82.031 77.224 82.031 52.734 L 82.031 28.245 79.627 25.841 L 77.224 23.438 52.734 23.438 L 28.245 23.438 25.841 25.841 M320.373 25.841 L 317.969 28.245 317.969 52.734 L 317.969 77.224 320.373 79.627 L 322.776 82.031 347.266 82.031 L 371.755 82.031 374.159 79.627 L 376.563 77.224 376.563 52.734 L 376.563 28.245 374.159 25.841 L 371.755 23.438 347.266 23.438 L 322.776 23.438 320.373 25.841 M70.313 52.734 L 70.313 70.313 52.734 70.313 L 35.156 70.313 35.156 52.734 L 35.156 35.156 52.734 35.156 L 70.313 35.156 70.313 52.734 M364.844 52.734 L 364.844 70.313 347.266 70.313 L 329.688 70.313 329.688 52.734 L 329.688 35.156 347.266 35.156 L 364.844 35.156 364.844 52.734 M184.020 87.074 C 187.236 90.290,184.951 96.094,180.469 96.094 C 179.570 96.094,177.972 95.231,176.918 94.176 C 175.863 93.121,175.000 91.523,175.000 90.625 C 175.000 89.727,175.863 88.129,176.918 87.074 C 177.972 86.019,179.570 85.156,180.469 85.156 C 181.367 85.156,182.965 86.019,184.020 87.074 M254.174 143.055 C 257.805 144.709,257.813 144.821,257.813 200.000 C 257.813 255.179,257.805 255.291,254.174 256.945 C 251.492 258.167,148.508 258.167,145.826 256.945 C 142.195 255.291,142.188 255.179,142.188 200.000 C 142.188 145.371,142.226 144.734,145.597 143.101 C 148.013 141.931,251.611 141.887,254.174 143.055 M157.627 154.348 C 153.083 156.813,153.125 156.393,153.130 200.157 C 153.136 244.237,153.013 243.072,157.961 245.818 C 161.009 247.510,239.266 247.304,242.156 245.597 C 246.995 242.739,246.875 243.895,246.875 200.036 C 246.875 150.205,247.847 153.125,231.253 153.125 C 221.366 153.125,218.750 154.433,218.750 159.375 C 218.750 163.793,221.602 165.625,228.480 165.625 L 234.375 165.625 234.375 200.000 L 234.375 234.375 200.000 234.375 L 165.625 234.375 165.625 200.000 L 165.625 165.625 184.020 165.625 L 202.415 165.625 204.332 163.707 C 205.541 162.499,206.250 160.897,206.250 159.375 C 206.250 157.853,205.541 156.251,204.332 155.043 L 202.415 153.125 181.090 153.156 C 163.754 153.182,159.366 153.405,157.627 154.348 M317.821 170.343 C 321.199 173.490,318.867 179.688,314.306 179.688 C 311.786 179.688,309.375 177.014,309.375 174.219 C 309.375 169.485,314.417 167.172,317.821 170.343 M109.020 221.449 C 112.236 224.665,109.951 230.469,105.469 230.469 C 103.361 230.469,100.000 227.108,100.000 225.000 C 100.000 220.518,105.804 218.233,109.020 221.449 M92.344 307.656 C 93.834 309.146,93.833 385.386,92.344 386.875 C 90.854 388.364,14.615 388.365,13.125 386.876 C 12.327 386.079,12.060 378.025,11.878 349.376 C 11.626 309.728,11.720 308.085,14.301 307.028 C 17.191 305.845,91.129 306.440,92.344 307.656 M227.770 308.949 C 228.825 310.004,229.688 311.602,229.688 312.500 C 229.688 313.398,228.825 314.996,227.770 316.051 C 226.715 317.106,225.117 317.969,224.219 317.969 C 223.320 317.969,221.722 317.106,220.668 316.051 C 219.613 314.996,218.750 313.398,218.750 312.500 C 218.750 308.018,224.554 305.733,227.770 308.949 M25.841 320.373 L 23.438 322.776 23.438 347.266 L 23.438 371.755 25.841 374.159 L 28.245 376.563 52.734 376.563 L 77.224 376.563 79.627 374.159 L 82.031 371.755 82.031 347.266 L 82.031 322.776 79.627 320.373 L 77.224 317.969 52.734 317.969 L 28.245 317.969 25.841 320.373 M320.373 320.373 L 317.969 322.776 317.969 347.266 L 317.969 371.755 320.373 374.159 L 322.776 376.563 347.266 376.563 L 371.755 376.563 374.159 374.159 L 376.563 371.755 376.563 347.266 L 376.563 322.776 374.159 320.373 L 371.755 317.969 347.266 317.969 L 322.776 317.969 320.373 320.373 M70.313 347.266 L 70.313 364.844 52.734 364.844 L 35.156 364.844 35.156 347.266 L 35.156 329.688 52.734 329.688 L 70.313 329.688 70.313 347.266 M364.844 347.266 L 364.844 364.844 347.266 364.844 L 329.688 364.844 329.688 347.266 L 329.688 329.688 347.266 329.688 L 364.844 329.688 364.844 347.266 " stroke="none" fill="#000000" fill-rule="evenodd"></path></g></svg>