<svg id="svg" version="1.1" xmlns="http://www.w3.org/2000/svg" xmlns:xlink="http://www.w3.org/1999/xlink" width="400" height="400" viewBox="0, 0, 400,400"><g id="svgg"><path id="path0" d="M88.281 1.361 C 83.112 3.181,75.678 10.883,73.759 16.406 C 72.400 20.318,72.266 23.144,72.266 47.920 L 72.266 75.137 74.110 76.631 C 76.541 78.600,80.809 78.566,82.813 76.563 C 84.309 75.066,84.375 73.955,84.379 50.195 C 84.386 11.470,83.763 12.250,114.993 11.856 L 135.065 11.603 135.849 14.591 C 136.281 16.234,137.175 19.949,137.836 22.847 C 140.356 33.894,144.059 39.140,152.150 43.125 L 157.384 45.703 183.575 45.950 C 223.416 46.324,228.618 43.708,233.994 20.592 L 236.084 11.603 256.128 11.856 C 278.898 12.144,280.455 12.497,284.249 18.228 L 286.328 21.367 286.552 47.988 L 286.776 74.609 277.177 74.647 C 249.644 74.755,228.190 94.761,226.739 121.680 L 226.350 128.906 170.778 128.906 L 115.206 128.906 112.402 130.812 C 106.785 134.629,107.031 131.736,107.031 193.948 L 107.031 249.769 108.789 252.352 C 113.039 258.596,109.538 258.177,159.430 258.417 L 203.903 258.631 208.693 266.842 C 217.402 281.772,222.544 281.761,231.135 266.792 L 235.615 258.984 245.878 258.594 C 257.200 258.163,258.751 257.573,262.305 252.352 L 264.063 249.769 264.063 211.985 L 264.063 174.200 267.383 174.795 C 269.209 175.123,274.311 175.365,278.720 175.333 L 286.736 175.276 286.532 276.953 L 286.328 378.630 284.249 381.771 C 281.209 386.366,277.741 387.710,267.856 388.126 L 259.540 388.475 257.440 379.448 C 252.405 357.793,246.069 353.906,215.806 353.906 C 193.940 353.906,190.859 354.983,192.622 362.007 C 193.669 366.177,194.813 366.405,214.822 366.423 C 235.381 366.443,237.904 366.957,241.380 371.838 C 243.033 374.160,246.050 383.836,246.080 386.914 C 246.093 388.205,242.695 388.281,185.547 388.281 C 137.623 388.281,125.003 388.078,125.013 387.305 C 125.048 384.766,128.131 374.784,129.629 372.360 C 132.998 366.910,135.389 366.406,157.923 366.406 C 180.570 366.406,181.250 366.219,181.250 359.967 C 181.250 354.030,180.174 353.783,155.483 354.057 L 133.945 354.297 128.712 356.875 C 120.622 360.860,116.919 366.106,114.398 377.153 C 113.737 380.051,112.838 383.784,112.401 385.450 L 111.606 388.477 103.264 388.123 C 91.952 387.643,87.234 384.874,85.191 377.515 C 84.649 375.566,84.382 328.162,84.379 233.520 C 84.375 98.201,84.317 92.377,82.957 91.146 C 80.131 88.589,76.872 88.633,74.240 91.265 L 71.854 93.650 72.060 236.864 C 72.296 401.081,71.426 384.049,80.017 392.640 C 88.025 400.648,78.727 400.000,185.678 400.000 C 275.788 400.000,279.021 399.950,282.847 398.496 C 288.901 396.196,293.286 392.150,296.250 386.129 L 298.828 380.893 299.034 275.791 L 299.241 170.689 302.941 168.754 C 335.145 151.917,335.159 98.089,302.963 81.258 L 299.286 79.335 299.057 49.219 L 298.828 19.103 296.250 13.869 C 293.286 7.850,288.900 3.804,282.847 1.504 C 277.267 -0.616,94.279 -0.751,88.281 1.361 M222.643 13.086 C 222.569 20.626,217.860 29.883,212.968 32.105 C 207.819 34.444,162.968 34.338,158.089 31.976 C 153.471 29.740,148.550 19.896,148.451 12.695 C 148.440 11.928,156.373 11.719,185.547 11.719 C 220.373 11.719,222.655 11.803,222.643 13.086 M284.036 87.565 C 303.534 91.127,317.847 110.977,314.831 130.273 C 309.959 161.448,272.082 173.928,250.100 151.601 C 224.202 125.298,247.715 80.931,284.036 87.565 M266.684 112.008 C 262.143 115.914,264.743 122.656,270.790 122.656 L 273.438 122.656 273.438 130.911 C 273.438 135.451,273.782 139.808,274.202 140.594 C 276.165 144.262,283.310 143.975,285.049 140.159 C 285.986 138.102,286.295 117.430,285.437 114.227 C 284.271 109.873,270.992 108.303,266.684 112.008 M231.395 146.682 C 235.001 154.263,240.535 161.081,246.755 165.606 L 251.563 169.103 251.563 207.598 L 251.563 246.094 241.211 246.121 C 228.591 246.155,228.266 246.309,223.551 254.490 L 219.919 260.793 216.082 254.292 C 210.847 245.421,215.118 246.094,164.026 246.094 L 119.531 246.094 119.531 193.880 C 119.531 165.163,119.766 141.432,120.052 141.146 C 120.339 140.859,144.860 140.626,174.544 140.627 L 228.516 140.630 231.395 146.682 M151.619 166.121 C 149.490 168.828,149.573 171.291,151.885 173.980 L 153.771 176.172 167.188 176.172 L 180.604 176.172 182.490 173.980 C 184.802 171.291,184.885 168.828,182.756 166.121 L 181.137 164.063 167.188 164.063 L 153.238 164.063 151.619 166.121 M151.619 189.558 C 149.788 191.886,149.605 193.590,150.883 196.395 C 152.491 199.925,153.978 200.067,187.014 199.831 L 218.108 199.609 219.601 197.765 C 221.673 195.205,221.530 191.307,219.286 189.199 C 217.490 187.511,217.261 187.500,185.358 187.500 L 153.238 187.500 151.619 189.558 M151.918 212.074 C 149.822 214.169,149.532 216.087,150.867 219.018 C 152.460 222.512,153.832 222.656,185.547 222.656 C 217.262 222.656,218.634 222.512,220.226 219.018 C 221.562 216.087,221.271 214.169,219.176 212.074 L 217.259 210.156 185.547 210.156 L 153.835 210.156 151.918 212.074 " stroke="none" fill="#000000" fill-rule="evenodd"></path></g></svg>