<svg id="svg" version="1.1" xmlns="http://www.w3.org/2000/svg" xmlns:xlink="http://www.w3.org/1999/xlink" width="400" height="400" viewBox="0, 0, 400,400"><g id="svgg"><path id="path0" d="M210.938 28.075 C 195.788 31.132,145.561 86.302,95.670 154.688 C 54.554 211.045,41.700 245.827,52.752 270.818 L 54.532 274.842 46.179 284.492 C 5.896 331.024,6.693 329.484,16.020 342.766 C 19.804 348.155,35.042 352.834,84.375 363.756 C 124.041 372.538,133.803 373.625,144.325 370.429 C 157.567 366.407,168.838 354.916,180.076 333.984 C 182.152 330.117,183.926 326.849,184.019 326.722 C 184.111 326.595,186.426 327.649,189.164 329.066 C 194.028 331.582,194.362 331.640,203.906 331.611 C 223.752 331.551,232.246 325.050,257.001 290.972 C 273.083 268.835,327.666 196.986,332.851 191.131 C 333.176 190.765,334.552 191.286,335.909 192.290 C 353.117 205.012,388.932 168.648,389.357 138.024 C 389.449 131.453,389.353 131.039,387.355 129.315 C 386.200 128.319,385.432 127.329,385.646 127.114 C 386.642 126.118,388.317 117.751,388.649 112.109 C 388.852 108.672,389.238 102.871,389.507 99.219 C 390.758 82.237,382.608 66.402,369.401 60.155 C 366.680 58.867,363.892 57.813,363.207 57.813 C 362.522 57.813,361.314 57.098,360.524 56.225 C 353.547 48.515,292.524 35.134,242.969 30.447 C 238.027 29.980,230.011 29.090,225.155 28.470 C 215.648 27.257,215.071 27.241,210.938 28.075 M217.077 44.580 C 198.341 64.896,173.391 94.840,171.873 98.835 C 167.976 109.084,173.054 113.680,192.188 117.224 C 199.277 118.538,220.195 122.607,238.672 126.267 C 285.164 135.477,285.852 135.488,291.975 127.060 C 300.309 115.589,324.385 85.190,337.755 69.259 C 346.206 59.188,346.362 59.109,352.222 61.917 C 355.829 63.646,355.055 64.985,338.535 85.611 C 295.705 139.086,264.376 181.198,237.405 221.549 C 220.995 246.100,219.123 250.109,208.740 282.924 C 205.472 293.253,203.912 296.399,201.393 297.747 C 200.044 298.469,199.972 298.387,200.722 296.985 C 204.002 290.857,206.024 291.656,152.344 277.860 C 61.540 254.523,71.710 256.367,66.509 262.296 L 62.576 266.780 61.384 263.925 C 51.306 239.806,69.460 203.841,132.885 122.266 C 165.801 79.931,181.466 62.714,206.250 41.635 C 210.562 37.968,211.745 37.549,217.858 37.524 L 223.607 37.500 217.077 44.580 M249.827 41.032 C 277.712 43.913,299.167 47.718,329.445 55.150 L 335.061 56.529 331.788 60.573 C 314.244 82.251,295.868 105.428,289.514 113.892 C 285.042 119.850,281.216 124.219,280.471 124.219 C 276.143 124.219,182.810 105.658,181.446 104.526 C 179.645 103.031,180.414 101.877,193.882 85.867 C 218.168 56.997,234.343 39.844,237.278 39.844 C 237.854 39.844,243.501 40.378,249.827 41.032 M238.309 53.855 C 236.933 56.425,237.344 57.846,242.490 68.340 C 245.234 73.937,249.464 83.613,251.889 89.844 C 258.096 105.788,258.276 106.140,260.530 106.706 C 263.423 107.432,266.406 105.238,266.406 102.384 C 266.406 96.670,248.513 55.406,244.967 52.942 C 243.250 51.749,239.134 52.313,238.309 53.855 M272.241 62.819 C 269.350 67.231,274.342 84.534,278.758 85.408 C 284.370 86.517,285.325 83.232,282.730 71.739 C 280.276 60.867,275.937 57.178,272.241 62.819 M366.250 69.859 C 369.263 71.443,374.570 77.199,376.393 80.859 C 377.862 83.807,379.834 89.844,379.329 89.844 C 379.202 89.844,377.835 89.316,376.292 88.672 C 365.033 83.967,351.862 97.746,294.147 174.609 C 242.000 244.058,234.037 257.051,230.795 277.984 C 225.046 315.107,218.683 320.881,191.162 313.945 L 188.183 313.194 189.763 310.699 C 191.293 308.283,191.516 308.203,196.776 308.203 C 206.836 308.203,212.026 302.490,217.269 285.642 C 226.704 255.319,228.289 251.682,239.549 234.503 C 265.000 195.676,295.369 154.546,337.403 101.979 C 350.455 85.656,361.658 71.502,362.297 70.526 C 363.671 68.429,363.564 68.447,366.250 69.859 M223.465 76.511 C 221.518 80.148,227.503 100.176,231.015 101.776 C 233.673 102.987,237.017 101.133,237.352 98.262 C 237.686 95.409,232.202 77.184,230.647 75.977 C 228.660 74.434,224.407 74.751,223.465 76.511 M375.631 99.558 C 384.295 109.426,376.380 121.619,310.934 199.219 C 276.580 239.952,260.127 260.451,245.797 280.370 C 241.664 286.116,238.292 290.159,238.304 289.354 C 238.397 283.445,242.385 267.151,245.148 261.393 C 256.692 237.334,356.401 106.207,369.141 98.330 C 372.333 96.356,372.917 96.467,375.631 99.558 M141.406 127.302 C 133.560 131.466,131.580 141.728,137.720 146.404 C 140.834 148.776,157.518 153.125,163.503 153.125 C 176.787 153.125,183.211 138.516,172.913 131.725 C 165.445 126.799,147.183 124.236,141.406 127.302 M160.538 137.537 C 168.397 140.054,169.007 140.590,166.232 142.534 C 162.896 144.871,143.750 141.064,143.750 138.064 C 143.750 134.440,150.234 134.236,160.538 137.537 M188.793 137.077 C 177.804 140.995,176.363 154.777,186.521 158.803 C 192.933 161.344,207.606 164.271,211.216 163.730 C 220.646 162.315,226.269 152.249,221.585 145.166 C 217.911 139.610,196.502 134.329,188.793 137.077 M372.283 147.181 C 367.868 165.867,354.317 181.257,343.986 179.319 L 341.345 178.824 344.696 174.651 C 346.539 172.356,353.672 163.450,360.547 154.860 C 373.730 138.389,374.475 137.902,372.283 147.181 M199.376 146.165 C 210.966 148.552,215.143 150.491,213.351 152.650 C 210.713 155.829,187.465 150.873,189.508 147.567 C 190.808 145.464,193.864 145.030,199.376 146.165 M237.432 146.790 C 226.346 150.427,224.917 163.599,235.059 168.672 C 254.087 178.190,274.985 172.655,271.559 159.004 C 269.652 151.405,247.515 143.482,237.432 146.790 M252.798 157.418 C 261.501 159.626,263.825 161.122,261.374 162.938 C 258.703 164.918,239.862 161.864,238.131 159.170 C 235.813 155.564,242.392 154.779,252.798 157.418 M114.437 162.494 C 106.107 166.617,104.352 178.501,111.427 182.874 C 114.525 184.788,130.453 188.281,136.084 188.281 C 150.836 188.281,156.195 171.659,143.284 165.949 C 132.623 161.234,120.029 159.726,114.437 162.494 M129.688 172.673 C 141.039 175.355,143.649 177.478,137.696 179.185 C 134.886 179.991,117.669 176.411,116.683 174.816 C 114.672 171.562,120.745 170.561,129.688 172.673 M160.452 172.164 C 147.668 178.000,151.272 192.474,166.406 196.075 C 187.694 201.140,198.741 196.520,196.027 183.686 C 194.307 175.556,170.157 167.734,160.452 172.164 M179.927 183.227 C 187.280 185.365,187.631 185.649,185.265 187.567 C 182.882 189.499,181.712 189.456,171.880 187.074 C 162.332 184.761,161.340 184.111,164.019 181.923 C 166.291 180.067,170.143 180.382,179.927 183.227 M208.027 182.104 C 195.790 188.161,199.296 201.179,214.100 204.654 C 234.688 209.488,244.540 206.286,244.528 194.765 C 244.518 184.547,220.160 176.098,208.027 182.104 M224.513 191.444 C 228.433 192.324,232.432 193.210,233.398 193.412 C 235.846 193.924,235.697 196.662,233.160 197.818 C 229.466 199.501,209.916 194.473,211.320 192.201 C 212.913 189.623,215.693 189.464,224.513 191.444 M91.797 198.342 C 78.545 201.764,77.048 218.319,89.673 221.845 C 108.852 227.203,117.592 226.544,122.930 219.339 C 126.417 214.632,124.235 206.352,118.762 203.522 C 112.087 200.070,96.616 197.098,91.797 198.342 M106.213 209.715 C 114.572 211.893,116.932 213.479,114.499 215.282 C 111.014 217.866,90.625 213.832,90.625 210.558 C 90.625 207.386,96.130 207.088,106.213 209.715 M135.547 208.702 C 126.182 212.171,123.329 225.072,130.838 229.992 C 133.568 231.781,149.284 235.255,155.118 235.360 C 168.825 235.606,175.113 221.612,164.767 213.887 C 159.939 210.283,140.561 206.844,135.547 208.702 M186.180 217.246 C 175.588 219.269,171.151 233.263,179.391 238.661 C 186.040 243.018,207.376 245.548,212.418 242.578 C 218.385 239.064,220.528 231.698,217.062 226.620 C 213.134 220.866,195.404 215.484,186.180 217.246 M151.173 219.620 C 159.119 221.613,160.957 222.703,159.445 224.525 C 157.512 226.854,135.938 223.319,135.938 220.674 C 135.938 217.643,141.699 217.244,151.173 219.620 M198.698 228.153 C 209.743 230.907,210.975 231.728,207.486 234.014 C 205.411 235.374,204.222 235.262,192.969 232.647 C 184.171 230.602,183.732 230.330,185.832 228.230 C 187.927 226.135,190.542 226.120,198.698 228.153 M109.319 276.658 C 128.041 281.437,148.281 286.584,154.297 288.095 C 160.313 289.606,165.524 291.102,165.879 291.418 C 166.677 292.129,154.211 308.770,137.566 329.216 C 130.244 338.210,125.000 345.334,125.000 346.287 C 125.000 351.083,130.792 352.274,134.550 348.250 C 138.927 343.564,158.769 318.461,167.899 306.059 C 177.985 292.357,176.783 293.095,185.057 295.517 L 188.361 296.484 175.354 314.063 C 142.310 358.718,143.786 357.031,137.764 357.031 C 125.632 357.031,36.704 337.477,24.763 332.184 C 20.343 330.224,20.457 329.637,26.526 323.068 C 28.521 320.908,34.164 314.219,39.066 308.203 C 56.225 287.146,73.081 267.969,74.432 267.969 C 74.898 267.969,90.597 271.879,109.319 276.658 " stroke="none" fill="#000000" fill-rule="evenodd"></path></g></svg>