<svg id="svg" version="1.1" xmlns="http://www.w3.org/2000/svg" xmlns:xlink="http://www.w3.org/1999/xlink" width="400" height="400" viewBox="0, 0, 400,400"><g id="svgg"><path id="path0" d="M187.891 4.714 C 130.122 13.600,100.733 80.555,133.206 129.297 C 157.360 165.551,207.717 175.936,244.204 152.187 C 297.230 117.674,291.294 37.732,233.731 11.137 C 221.168 5.332,201.650 2.597,187.891 4.714 M217.045 15.627 C 254.759 24.694,279.073 65.153,268.924 101.953 C 253.875 156.522,187.274 173.506,148.771 132.594 C 100.857 81.684,148.969 -0.741,217.045 15.627 M192.768 23.512 C 151.312 27.849,126.512 74.154,145.317 112.109 C 167.720 157.329,233.851 156.860,255.572 111.328 C 276.608 67.231,241.681 18.394,192.768 23.512 M212.805 34.353 C 251.765 44.317,265.089 92.825,236.616 121.038 C 209.263 148.142,163.947 137.482,151.366 100.983 C 138.206 62.802,173.668 24.344,212.805 34.353 M196.875 43.750 C 196.016 44.609,195.313 45.813,195.313 46.424 C 195.313 47.035,194.112 47.931,192.644 48.416 C 175.405 54.105,175.216 82.473,192.383 87.646 L 195.313 88.529 195.313 99.869 L 195.313 111.210 193.285 109.316 C 190.762 106.959,189.063 103.766,189.063 101.385 C 189.063 98.289,186.945 96.094,183.958 96.094 C 173.843 96.094,180.878 116.188,192.459 120.376 C 194.167 120.994,195.313 121.923,195.313 122.692 C 195.313 127.117,202.763 127.883,204.626 123.649 C 205.358 121.986,206.584 120.847,208.223 120.306 C 225.021 114.762,225.069 87.243,208.293 81.176 L 205.469 80.155 205.469 69.374 C 205.469 63.445,205.759 58.594,206.114 58.594 C 208.183 58.594,211.719 64.751,211.719 68.354 C 211.719 70.928,213.718 72.656,216.696 72.656 C 226.271 72.656,220.663 54.917,209.271 49.166 C 206.038 47.534,204.688 46.404,204.688 45.329 C 204.688 42.214,199.466 41.159,196.875 43.750 M195.313 68.387 C 195.313 78.023,195.287 78.166,193.708 77.321 C 188.211 74.379,187.552 65.697,192.421 60.352 C 195.057 57.458,195.313 58.169,195.313 68.387 M210.997 97.445 C 212.149 100.937,211.348 104.861,208.884 107.790 C 205.773 111.487,205.469 110.815,205.469 100.244 L 205.469 90.333 207.794 92.561 C 209.074 93.786,210.515 95.984,210.997 97.445 M30.464 173.386 C 24.721 175.133,19.524 179.561,17.109 184.766 C 15.309 188.646,14.771 377.827,16.544 383.745 C 17.779 387.867,22.628 393.212,27.157 395.442 L 30.859 397.266 200.391 397.266 L 369.922 397.266 374.106 394.948 C 379.083 392.192,382.331 388.483,383.963 383.694 C 385.861 378.123,385.758 191.889,383.854 186.299 C 382.129 181.237,376.575 175.684,371.513 173.959 C 367.408 172.560,35.014 172.002,30.464 173.386 M370.826 184.840 C 375.818 188.860,375.689 187.258,375.737 245.898 L 375.781 299.219 200.391 299.219 L 25.000 299.219 25.003 245.117 C 25.006 185.728,24.812 188.291,29.591 184.593 C 32.607 182.260,39.492 182.168,201.685 182.293 L 367.824 182.422 370.826 184.840 M71.117 205.143 C 62.547 208.861,62.407 209.516,62.669 244.806 L 62.891 274.726 64.988 277.893 C 69.435 284.612,67.342 284.375,122.266 284.375 C 177.191 284.375,175.097 284.612,179.544 277.892 L 181.641 274.723 181.641 244.141 L 181.641 213.558 179.544 210.389 C 175.094 203.665,177.203 203.902,122.214 203.937 C 80.899 203.963,73.432 204.139,71.117 205.143 M236.449 212.366 C 234.742 214.253,234.806 217.410,236.585 219.020 C 239.026 221.229,334.497 220.972,336.719 218.750 C 338.669 216.800,338.728 213.927,336.853 212.230 C 334.535 210.133,238.352 210.263,236.449 212.366 M117.188 220.703 L 117.188 228.125 110.886 228.125 C 102.289 228.125,99.219 230.482,99.219 237.084 L 99.219 239.063 85.547 239.063 L 71.875 239.063 71.875 228.464 C 71.875 212.500,70.383 213.396,97.070 213.331 L 117.188 213.281 117.188 220.703 M170.872 215.065 C 172.054 216.246,172.304 218.172,172.519 227.760 L 172.772 239.063 159.042 239.063 L 145.313 239.063 145.313 237.226 C 145.313 230.557,142.189 228.125,133.621 228.125 L 127.344 228.125 127.344 220.667 L 127.344 213.210 148.411 213.441 C 167.394 213.649,169.616 213.810,170.872 215.065 M135.156 244.141 L 135.156 250.781 122.266 250.781 L 109.375 250.781 109.375 244.141 L 109.375 237.500 122.266 237.500 L 135.156 237.500 135.156 244.141 M236.719 240.625 C 234.888 242.456,234.703 245.175,236.265 247.312 C 238.080 249.795,333.063 250.085,336.201 247.617 C 338.696 245.654,338.907 242.813,336.719 240.625 C 335.190 239.096,334.115 239.063,286.719 239.063 C 239.323 239.063,238.248 239.096,236.719 240.625 M99.219 251.601 C 99.219 257.922,102.266 260.156,110.886 260.156 L 117.188 260.156 117.188 267.614 L 117.188 275.072 96.024 274.841 L 74.860 274.609 73.367 272.765 C 72.059 271.147,71.875 269.586,71.875 260.070 L 71.875 249.219 85.547 249.219 L 99.219 249.219 99.219 251.601 M172.656 259.338 C 172.656 275.651,173.713 275.000,147.229 275.000 L 127.344 275.000 127.344 267.578 L 127.344 260.156 133.645 260.156 C 142.243 260.156,145.313 257.799,145.313 251.197 L 145.313 249.219 158.984 249.219 L 172.656 249.219 172.656 259.338 M236.449 269.397 C 234.742 271.284,234.806 274.441,236.585 276.051 C 237.882 277.225,242.509 277.344,286.931 277.344 L 335.849 277.344 337.065 275.607 C 338.702 273.270,338.596 271.408,336.719 269.531 C 334.380 267.193,238.560 267.065,236.449 269.397 M375.781 324.609 L 375.781 340.625 200.391 340.625 L 25.000 340.625 25.000 324.609 L 25.000 308.594 200.391 308.594 L 375.781 308.594 375.781 324.609 M375.764 363.867 C 375.745 379.655,374.885 383.039,370.163 385.918 C 366.115 388.386,34.703 388.409,30.657 385.942 C 25.477 382.784,25.006 381.009,25.003 364.648 L 25.000 350.000 200.391 350.000 L 375.781 350.000 375.764 363.867 M71.767 364.858 C 69.809 366.001,69.262 369.394,70.685 371.567 L 71.911 373.438 96.458 373.438 C 120.939 373.438,121.008 373.433,122.221 371.701 C 123.858 369.364,123.752 367.502,121.875 365.625 C 120.138 363.888,74.620 363.191,71.767 364.858 M140.355 365.491 C 138.722 367.296,138.690 370.610,140.290 372.210 C 141.353 373.273,144.751 373.438,165.625 373.438 C 192.044 373.438,192.188 373.413,192.188 368.815 C 192.188 364.148,191.710 364.063,165.489 364.063 C 143.385 364.063,141.554 364.167,140.355 365.491 M209.785 365.124 C 208.091 366.362,207.838 370.413,209.340 372.224 C 211.219 374.487,258.892 374.000,260.503 371.701 C 262.139 369.364,262.033 367.502,260.156 365.625 C 258.146 363.615,212.470 363.161,209.785 365.124 M278.637 365.491 C 277.004 367.296,276.971 370.610,278.571 372.210 C 279.634 373.273,283.032 373.438,303.906 373.438 C 330.326 373.438,330.469 373.413,330.469 368.815 C 330.469 364.148,329.991 364.063,303.771 364.063 C 281.666 364.063,279.835 364.167,278.637 365.491 " stroke="none" fill="#000000" fill-rule="evenodd"></path></g></svg>