<svg id="svg" version="1.1" xmlns="http://www.w3.org/2000/svg" xmlns:xlink="http://www.w3.org/1999/xlink" width="400" height="400" viewBox="0, 0, 400,400"><g id="svgg"><path id="path0" d="M5.793 29.225 C -0.244 31.880,0.000 30.080,-0.000 71.992 L -0.000 109.398 2.674 112.316 L 5.348 115.234 61.854 115.437 C 125.099 115.663,122.328 115.894,125.194 110.156 C 127.176 106.189,127.291 38.100,125.323 33.953 C 122.588 28.189,126.377 28.536,64.063 28.340 C 18.443 28.197,7.761 28.359,5.793 29.225 M142.996 29.146 C 141.449 29.678,139.523 31.216,138.504 32.733 L 136.719 35.387 136.730 71.795 C 136.743 111.522,136.651 110.685,141.338 113.844 L 143.981 115.625 200.000 115.625 L 256.019 115.625 258.662 113.844 C 263.349 110.685,263.257 111.522,263.270 71.795 L 263.281 35.387 261.496 32.733 C 260.477 31.216,258.551 29.678,257.004 29.146 C 253.131 27.812,146.869 27.812,142.996 29.146 M280.892 28.695 C 278.185 29.382,275.947 31.276,274.677 33.953 C 272.709 38.100,272.824 106.189,274.806 110.156 C 277.672 115.894,274.901 115.663,338.146 115.437 L 394.652 115.234 397.326 112.316 L 400.000 109.398 400.000 71.992 C 400.000 25.651,400.992 28.125,382.408 28.125 C 370.716 28.125,367.969 29.380,367.969 34.724 C 367.969 39.384,370.446 40.625,379.744 40.625 L 388.281 40.625 388.281 57.031 L 388.281 73.438 337.109 73.438 L 285.938 73.438 285.938 57.031 L 285.938 40.625 317.912 40.625 L 349.887 40.625 351.506 38.567 C 354.222 35.113,353.554 31.135,349.944 29.268 C 347.769 28.143,285.111 27.623,280.892 28.695 M23.438 56.250 L 23.438 71.875 17.578 71.875 L 11.719 71.875 11.719 56.250 L 11.719 40.625 17.578 40.625 L 23.438 40.625 23.438 56.250 M45.313 56.250 L 45.313 71.875 40.625 71.875 L 35.938 71.875 35.938 56.250 L 35.938 40.625 40.625 40.625 L 45.313 40.625 45.313 56.250 M67.969 56.250 L 67.969 71.875 62.891 71.875 L 57.813 71.875 57.813 56.250 L 57.813 40.625 62.891 40.625 L 67.969 40.625 67.969 56.250 M89.844 56.250 L 89.844 71.875 85.156 71.875 L 80.469 71.875 80.469 56.250 L 80.469 40.625 85.156 40.625 L 89.844 40.625 89.844 56.250 M114.063 56.250 L 114.063 71.875 108.203 71.875 L 102.344 71.875 102.344 56.250 L 102.344 40.625 108.203 40.625 L 114.063 40.625 114.063 56.250 M217.969 55.469 L 217.969 70.313 183.594 70.313 L 149.219 70.313 149.219 55.469 L 149.219 40.625 183.594 40.625 L 217.969 40.625 217.969 55.469 M250.781 67.372 L 250.781 94.118 240.625 83.984 L 230.469 73.851 230.469 57.238 L 230.469 40.625 240.625 40.625 L 250.781 40.625 250.781 67.372 M231.641 92.969 L 241.774 103.125 195.497 103.125 L 149.219 103.125 149.219 92.969 L 149.219 82.813 185.363 82.813 L 221.507 82.813 231.641 92.969 M114.063 93.750 L 114.063 103.125 62.891 103.125 L 11.719 103.125 11.719 93.750 L 11.719 84.375 62.891 84.375 L 114.063 84.375 114.063 93.750 M388.281 94.531 L 388.281 103.125 337.109 103.125 L 285.938 103.125 285.938 94.531 L 285.938 85.938 337.109 85.938 L 388.281 85.938 388.281 94.531 M7.042 125.790 C 5.545 126.148,3.348 127.528,2.160 128.858 L 0.000 131.275 0.000 168.410 C 0.000 209.490,-0.077 208.830,4.966 211.223 C 9.596 213.419,118.088 213.136,121.727 210.917 C 125.855 208.401,126.562 205.601,126.563 191.786 C 126.563 178.038,125.681 175.781,120.313 175.781 C 115.161 175.781,114.063 178.247,114.063 189.808 L 114.063 200.000 105.859 200.000 L 97.656 200.000 97.656 168.750 L 97.656 137.500 105.859 137.500 L 114.063 137.500 114.063 147.301 C 114.063 158.432,115.211 160.938,120.313 160.938 C 125.648 160.938,126.563 158.644,126.563 145.271 C 126.562 123.549,132.373 125.421,64.453 125.265 C 34.375 125.196,8.540 125.432,7.042 125.790 M175.781 125.761 C 153.679 129.047,145.346 142.332,145.324 174.318 C 145.314 189.097,145.150 191.349,144.016 192.287 C 136.727 198.317,137.294 216.231,145.020 224.004 L 149.077 228.086 92.703 228.301 L 36.328 228.516 33.092 230.246 C 25.841 234.124,25.268 235.391,16.834 266.196 C 8.629 296.164,8.391 296.875,6.535 296.875 C 5.863 296.875,4.117 298.070,2.656 299.531 L 0.000 302.187 0.000 321.043 C 0.000 348.982,-6.448 346.094,55.923 346.094 L 104.893 346.094 104.385 349.414 C 102.484 361.842,103.511 366.138,109.235 369.697 L 112.109 371.484 200.000 371.484 L 287.891 371.484 290.765 369.697 C 296.489 366.138,297.516 361.842,295.615 349.414 L 295.107 346.094 344.077 346.094 C 406.424 346.094,400.000 348.950,400.000 321.227 C 400.000 300.328,399.816 299.587,394.031 297.169 C 391.875 296.268,391.257 295.415,390.285 291.991 C 389.645 289.736,386.288 277.520,382.826 264.844 C 375.641 238.542,375.494 238.117,372.377 234.567 C 366.750 228.158,370.746 228.543,307.297 228.301 L 250.923 228.086 254.980 224.004 C 262.706 216.231,263.273 198.317,255.984 192.287 C 254.850 191.349,254.686 189.097,254.676 174.318 C 254.656 144.794,249.091 133.912,230.552 127.146 C 225.744 125.392,185.169 124.365,175.781 125.761 M280.835 125.830 C 273.536 127.953,273.438 128.526,273.438 168.826 C 273.438 207.647,273.477 207.993,278.273 210.917 C 281.912 213.136,390.404 213.419,395.034 211.223 C 400.077 208.830,400.000 209.490,400.000 168.410 L 400.000 131.275 397.852 128.877 C 396.567 127.444,394.446 126.190,392.578 125.758 C 388.586 124.837,284.018 124.904,280.835 125.830 M54.688 152.344 L 54.688 167.188 33.203 167.188 L 11.719 167.188 11.719 152.344 L 11.719 137.500 33.203 137.500 L 54.688 137.500 54.688 152.344 M85.938 164.230 C 85.938 186.828,85.773 190.783,84.873 189.816 C 84.288 189.187,80.069 184.716,75.498 179.880 L 67.188 171.088 67.188 154.294 L 67.188 137.500 76.563 137.500 L 85.938 137.500 85.938 164.230 M228.177 139.930 C 239.646 145.309,241.693 150.151,242.041 172.732 L 242.313 190.385 236.195 194.179 C 228.035 199.238,221.781 205.313,217.365 212.467 C 212.666 220.080,214.047 219.557,199.229 219.334 L 186.348 219.141 182.041 212.727 C 176.470 204.431,173.025 200.968,164.585 195.183 L 157.687 190.453 157.959 172.766 C 158.298 150.785,160.243 145.762,170.430 140.565 C 178.070 136.667,220.231 136.204,228.177 139.930 M331.250 151.488 L 331.250 165.475 310.352 178.950 C 298.857 186.362,288.662 192.940,287.695 193.568 L 285.938 194.711 285.938 166.105 L 285.938 137.500 308.594 137.500 L 331.250 137.500 331.250 151.488 M388.281 150.000 L 388.281 162.500 366.016 162.500 L 343.750 162.500 343.750 150.000 L 343.750 137.500 366.016 137.500 L 388.281 137.500 388.281 150.000 M388.281 187.500 L 388.281 200.000 344.738 200.000 L 301.196 200.000 308.996 194.975 C 313.287 192.212,321.895 186.617,328.125 182.542 L 339.453 175.135 363.867 175.067 L 388.281 175.000 388.281 187.500 M64.240 186.523 C 67.884 190.283,72.188 194.854,73.805 196.680 L 76.744 200.000 44.232 200.000 L 11.719 200.000 11.719 189.844 L 11.719 179.688 34.667 179.688 L 57.616 179.688 64.240 186.523 M164.618 211.180 C 166.184 212.550,169.318 216.542,171.584 220.049 C 179.143 231.752,180.645 232.324,202.754 231.909 L 217.056 231.641 220.356 229.297 C 222.508 227.768,224.724 225.051,226.728 221.484 C 230.615 214.564,234.067 210.934,241.299 206.158 C 248.076 201.683,248.438 201.772,248.438 207.919 C 248.438 214.211,245.810 217.188,240.256 217.188 C 235.880 217.188,232.309 218.889,231.669 221.280 C 230.082 227.200,229.161 229.240,226.859 231.929 C 225.444 233.582,222.601 235.660,220.541 236.546 C 216.361 238.344,213.789 240.733,212.571 243.945 L 211.757 246.094 200.000 246.094 L 188.243 246.094 187.429 243.945 C 186.211 240.733,183.639 238.344,179.459 236.546 C 177.399 235.660,174.556 233.582,173.141 231.929 C 170.839 229.240,169.918 227.200,168.331 221.280 C 167.691 218.889,164.120 217.188,159.744 217.188 C 154.220 217.188,151.563 214.205,151.563 208.003 C 151.563 205.463,151.781 203.167,152.048 202.900 C 152.603 202.345,160.374 207.464,164.618 211.180 M164.898 241.863 C 165.463 242.544,167.479 244.170,169.378 245.476 L 172.831 247.852 169.423 251.182 C 166.313 254.222,164.721 254.939,151.172 259.401 C 123.481 268.521,117.474 273.614,114.791 290.251 L 113.848 296.094 67.862 296.094 C 42.569 296.094,21.875 295.929,21.875 295.727 C 21.875 291.735,36.295 243.815,37.927 242.383 L 39.931 240.625 101.901 240.625 C 157.500 240.625,163.977 240.752,164.898 241.863 M362.073 242.383 C 363.705 243.815,378.125 291.735,378.125 295.727 C 378.125 295.929,357.434 296.094,332.146 296.094 L 286.166 296.094 285.237 290.466 C 284.726 287.371,283.620 283.284,282.779 281.383 C 281.938 279.482,281.250 276.565,281.250 274.901 C 281.250 271.094,279.094 268.751,275.586 268.747 C 274.189 268.745,271.372 267.893,269.324 266.855 C 267.276 265.816,258.487 262.595,249.793 259.699 C 236.233 255.181,233.463 253.983,230.320 251.278 L 226.656 248.125 230.338 245.646 C 232.363 244.282,234.494 242.595,235.074 241.896 C 236.032 240.742,241.822 240.625,298.099 240.625 L 360.069 240.625 362.073 242.383 M48.047 250.121 C 44.215 252.217,43.424 256.195,46.150 259.660 L 47.770 261.719 75.781 261.719 L 103.793 261.719 105.412 259.660 C 108.128 256.207,107.460 252.228,103.850 250.362 C 101.053 248.915,50.649 248.697,48.047 250.121 M116.016 250.121 C 112.184 252.217,111.393 256.195,114.119 259.660 C 115.718 261.693,115.862 261.719,125.781 261.719 C 137.836 261.719,141.128 259.416,138.577 252.769 C 137.331 249.521,120.684 247.567,116.016 250.121 M264.844 251.563 C 262.455 253.952,262.713 258.815,265.340 260.881 C 269.601 264.233,275.000 261.613,275.000 256.193 C 275.000 252.250,272.871 250.000,269.141 250.000 C 267.448 250.000,265.811 250.595,264.844 251.563 M285.156 251.563 C 282.767 253.952,283.026 258.815,285.652 260.881 C 289.914 264.233,295.313 261.613,295.313 256.193 C 295.313 252.250,293.184 250.000,289.453 250.000 C 287.760 250.000,286.124 250.595,285.156 251.563 M305.469 251.563 C 303.080 253.952,303.338 258.815,305.965 260.881 C 310.226 264.233,315.625 261.613,315.625 256.193 C 315.625 252.250,313.496 250.000,309.766 250.000 C 308.073 250.000,306.436 250.595,305.469 251.563 M325.781 251.563 C 323.392 253.952,323.651 258.815,326.277 260.881 C 330.539 264.233,335.938 261.613,335.938 256.193 C 335.938 252.250,333.809 250.000,330.078 250.000 C 328.385 250.000,326.749 250.595,325.781 251.563 M346.094 251.563 C 343.705 253.952,343.963 258.815,346.590 260.881 C 350.851 264.233,356.250 261.613,356.250 256.193 C 356.250 252.250,354.121 250.000,350.391 250.000 C 348.698 250.000,347.061 250.595,346.094 251.563 M223.158 261.964 C 226.536 264.965,228.797 265.964,243.750 271.059 C 266.917 278.954,269.647 280.655,271.832 288.560 C 273.269 293.755,284.314 358.060,283.888 358.749 C 283.676 359.093,278.973 359.375,273.438 359.375 L 263.374 359.375 263.133 338.477 C 262.859 314.862,262.700 314.163,256.158 307.814 C 247.061 298.985,224.219 298.897,224.219 307.690 C 224.219 312.529,226.223 313.627,235.859 314.067 L 244.515 314.463 247.453 317.399 L 250.391 320.336 250.624 339.855 L 250.858 359.375 200.000 359.375 L 149.142 359.375 149.376 339.855 L 149.609 320.336 152.551 317.394 L 155.492 314.453 180.941 314.063 L 206.391 313.672 207.883 311.828 C 209.961 309.259,209.785 305.808,207.457 303.480 L 205.540 301.563 180.534 301.563 C 152.095 301.563,149.898 301.937,143.842 307.814 C 137.300 314.163,137.141 314.862,136.867 338.477 L 136.626 359.375 126.562 359.375 C 121.027 359.375,116.324 359.093,116.112 358.749 C 115.686 358.060,126.731 293.755,128.168 288.560 C 130.354 280.654,133.050 278.977,156.250 271.101 C 171.722 265.848,173.323 265.129,176.552 261.996 L 180.058 258.594 199.710 258.594 L 219.362 258.594 223.158 261.964 M44.922 268.871 C 41.090 270.967,40.299 274.945,43.025 278.410 L 44.645 280.469 72.656 280.469 L 100.668 280.469 102.287 278.410 C 105.003 274.957,104.335 270.978,100.725 269.112 C 97.928 267.665,47.524 267.447,44.922 268.871 M291.406 270.313 C 289.017 272.702,289.276 277.565,291.902 279.631 C 296.164 282.983,301.563 280.363,301.563 274.943 C 301.563 271.000,299.434 268.750,295.703 268.750 C 294.010 268.750,292.374 269.345,291.406 270.313 M311.719 270.313 C 309.330 272.702,309.588 277.565,312.215 279.631 C 316.476 282.983,321.875 280.363,321.875 274.943 C 321.875 271.000,319.746 268.750,316.016 268.750 C 314.323 268.750,312.686 269.345,311.719 270.313 M332.031 270.313 C 329.642 272.702,329.901 277.565,332.527 279.631 C 336.789 282.983,342.188 280.363,342.188 274.943 C 342.188 271.000,340.059 268.750,336.328 268.750 C 334.635 268.750,332.999 269.345,332.031 270.313 M352.344 270.313 C 349.955 272.702,350.213 277.565,352.840 279.631 C 357.101 282.983,362.500 280.363,362.500 274.943 C 362.500 271.000,360.371 268.750,356.641 268.750 C 354.948 268.750,353.311 269.345,352.344 270.313 M111.412 309.830 C 111.151 310.509,110.938 311.915,110.938 312.955 L 110.938 314.844 67.930 314.844 C 31.712 314.844,24.573 315.024,22.712 315.987 C 19.103 317.853,18.434 321.832,21.150 325.285 L 22.770 327.344 65.559 327.344 L 108.348 327.344 107.872 330.273 L 107.396 333.203 59.557 333.404 L 11.719 333.606 11.719 321.100 L 11.719 308.594 61.802 308.594 C 107.151 308.594,111.841 308.711,111.412 309.830 M388.281 321.100 L 388.281 333.606 340.443 333.404 L 292.604 333.203 292.128 330.273 L 291.652 327.344 334.441 327.344 L 377.230 327.344 378.850 325.285 C 381.566 321.832,380.897 317.853,377.288 315.987 C 375.427 315.024,368.288 314.844,332.070 314.844 L 289.063 314.844 289.063 312.955 C 289.063 311.915,288.849 310.509,288.588 309.830 C 288.159 308.711,292.849 308.594,338.198 308.594 L 388.281 308.594 388.281 321.100 " stroke="none" fill="#000000" fill-rule="evenodd"></path></g></svg>