<svg id="svg" xmlns="http://www.w3.org/2000/svg" xmlns:xlink="http://www.w3.org/1999/xlink" width="400"
     height="155.53935860058309" viewBox="0, 0, 400,155.53935860058309" version="1.1">
    <g id="svgg">
        <path id="path0"
              d="M8.857 31.987 C 8.262 32.060,7.886 32.202,7.732 32.413 C 7.452 32.796,7.386 51.729,7.663 52.167 C 7.803 52.387,11.946 52.421,43.072 52.453 L 78.322 52.489 78.578 52.124 C 78.872 51.705,78.967 32.803,78.678 32.346 C 78.591 32.209,78.081 32.054,77.472 31.979 C 76.205 31.824,10.137 31.832,8.857 31.987 M124.000 32.104 C 123.037 32.218,121.865 32.316,121.395 32.322 C 120.925 32.328,120.288 32.436,119.979 32.562 C 119.670 32.688,118.967 32.840,118.417 32.900 C 117.867 32.959,116.667 33.234,115.750 33.511 C 114.833 33.788,113.847 34.077,113.559 34.153 C 113.270 34.229,112.858 34.415,112.642 34.566 C 112.426 34.718,111.950 34.922,111.583 35.020 C 110.838 35.220,107.728 36.737,107.320 37.099 C 107.175 37.228,107.006 37.333,106.943 37.333 C 106.778 37.333,104.427 38.892,104.359 39.047 C 104.328 39.118,103.930 39.365,103.476 39.596 C 103.022 39.826,102.217 40.424,101.687 40.924 C 101.158 41.425,100.453 42.041,100.121 42.292 C 99.312 42.907,96.164 46.220,95.146 47.530 C 93.351 49.840,91.833 52.034,91.833 52.321 C 91.833 52.404,91.770 52.497,91.692 52.528 C 91.383 52.649,88.805 58.306,88.586 59.342 C 88.519 59.658,88.365 60.142,88.243 60.417 C 87.419 62.270,86.539 67.763,86.388 71.997 C 86.163 78.311,87.856 85.723,90.787 91.250 C 90.933 91.525,91.198 92.043,91.376 92.401 C 91.554 92.759,91.983 93.471,92.330 93.984 C 92.676 94.497,93.073 95.142,93.213 95.417 C 93.352 95.692,93.624 96.060,93.816 96.235 C 94.009 96.409,94.167 96.607,94.167 96.675 C 94.167 96.743,94.403 97.050,94.691 97.357 C 94.979 97.665,95.496 98.292,95.839 98.750 C 97.302 100.702,101.909 104.893,104.393 106.531 C 105.323 107.145,106.271 107.785,106.500 107.955 C 107.055 108.366,108.948 109.284,111.833 110.540 C 112.823 110.971,115.912 112.000,116.217 112.000 C 116.349 112.000,116.899 112.141,117.440 112.314 C 121.190 113.512,133.304 113.480,137.583 112.261 C 139.206 111.799,142.204 110.820,142.833 110.548 C 145.362 109.453,147.962 108.031,149.618 106.838 C 150.004 106.561,150.366 106.333,150.423 106.333 C 150.548 106.333,151.788 105.354,152.845 104.422 C 153.264 104.052,153.939 103.459,154.345 103.102 C 156.082 101.579,158.173 99.436,159.083 98.247 C 159.358 97.888,159.790 97.406,160.042 97.177 C 160.294 96.947,160.500 96.697,160.500 96.621 C 160.500 96.546,160.814 96.019,161.198 95.450 C 162.357 93.734,162.426 93.623,163.037 92.500 C 164.648 89.536,165.733 87.092,166.219 85.333 C 166.358 84.829,166.588 84.004,166.730 83.500 C 167.540 80.623,168.046 76.182,168.001 72.333 C 167.973 69.936,167.585 65.222,167.370 64.667 C 167.281 64.438,167.154 63.856,167.088 63.375 C 167.023 62.894,166.905 62.461,166.827 62.413 C 166.750 62.365,166.633 61.972,166.568 61.541 C 166.468 60.870,165.649 58.326,165.187 57.250 C 164.552 55.770,162.802 52.400,162.256 51.604 C 161.886 51.066,161.508 50.502,161.417 50.351 C 161.325 50.200,161.081 49.841,160.875 49.554 C 160.669 49.267,160.500 48.985,160.500 48.928 C 160.500 48.783,158.799 46.756,157.833 45.750 C 157.393 45.292,156.594 44.457,156.058 43.895 C 155.522 43.333,154.633 42.500,154.083 42.043 C 153.533 41.586,152.864 41.005,152.595 40.753 C 151.542 39.763,148.032 37.429,146.333 36.589 C 144.209 35.540,142.799 34.891,142.333 34.751 C 142.104 34.682,141.842 34.570,141.750 34.502 C 141.658 34.433,140.796 34.137,139.833 33.843 C 138.871 33.548,137.866 33.238,137.600 33.154 C 137.334 33.069,136.897 33.000,136.628 33.000 C 136.359 33.000,135.564 32.855,134.861 32.679 C 132.059 31.974,127.247 31.719,124.000 32.104 M175.372 31.949 C 173.948 32.090,174.083 27.810,174.083 72.776 C 174.083 105.270,174.123 112.690,174.300 112.867 C 174.583 113.150,228.816 113.277,229.342 112.996 C 229.658 112.826,229.667 112.571,229.667 103.252 C 229.667 93.182,229.642 92.835,228.932 92.832 C 228.740 92.831,221.031 92.813,211.800 92.790 C 198.292 92.758,194.974 92.708,194.800 92.533 C 194.623 92.357,194.594 87.044,194.642 63.854 C 194.701 35.648,194.665 32.789,194.244 32.214 C 194.035 31.927,177.887 31.701,175.372 31.949 M237.723 31.986 C 236.403 32.207,236.500 31.382,236.500 42.358 L 236.500 52.175 236.930 52.338 C 237.737 52.645,291.024 52.548,291.466 52.239 L 291.833 51.981 291.833 42.266 C 291.833 32.602,291.832 32.550,291.483 32.234 C 291.120 31.906,239.618 31.668,237.723 31.986 M305.835 31.960 C 305.308 31.995,304.796 32.133,304.627 32.286 C 304.252 32.625,304.160 112.593,304.533 112.967 C 304.853 113.287,323.987 113.252,324.426 112.930 C 324.744 112.698,324.752 112.149,324.833 82.772 C 324.892 61.767,324.970 52.797,325.096 52.671 C 325.222 52.545,330.941 52.505,344.429 52.538 L 363.583 52.583 364.917 53.126 C 366.330 53.701,366.957 54.273,367.752 55.717 C 368.517 57.107,368.523 57.347,368.481 85.781 C 368.449 107.586,368.483 112.695,368.658 112.906 C 368.877 113.170,387.659 113.321,388.605 113.067 C 388.867 112.997,388.978 112.811,389.028 112.361 C 389.241 110.439,388.866 55.514,388.630 54.167 C 388.354 52.590,388.032 51.255,387.806 50.750 C 387.724 50.567,387.551 50.042,387.423 49.583 C 387.088 48.393,386.670 47.288,386.458 47.033 C 386.252 46.785,385.339 45.112,384.824 44.039 C 384.636 43.649,384.085 42.899,383.598 42.373 C 383.112 41.847,382.385 41.046,381.982 40.593 C 380.844 39.312,378.948 37.512,378.625 37.406 C 378.465 37.354,378.333 37.243,378.333 37.160 C 378.333 37.077,378.115 36.896,377.849 36.758 C 377.583 36.620,377.259 36.402,377.130 36.273 C 376.918 36.061,376.235 35.656,375.020 35.022 C 374.780 34.897,374.396 34.675,374.167 34.528 C 373.491 34.096,371.178 33.289,369.250 32.814 C 365.912 31.990,367.587 32.033,336.250 31.964 C 320.025 31.929,306.338 31.927,305.835 31.960 M129.409 52.678 C 130.422 52.776,131.625 52.957,132.083 53.079 C 132.542 53.201,133.198 53.350,133.542 53.408 C 133.885 53.467,134.167 53.587,134.167 53.674 C 134.167 53.762,134.249 53.833,134.350 53.833 C 134.727 53.833,138.500 55.623,138.500 55.802 C 138.500 55.871,138.706 56.051,138.958 56.201 C 139.747 56.670,141.688 58.432,142.535 59.445 C 142.981 59.980,143.620 60.742,143.956 61.139 C 144.292 61.537,144.701 62.137,144.866 62.473 C 145.031 62.809,145.465 63.646,145.831 64.333 C 146.196 65.021,146.495 65.658,146.495 65.750 C 146.495 65.842,146.642 66.404,146.822 67.000 C 149.851 77.053,144.606 87.377,134.250 91.745 C 132.116 92.644,124.610 92.973,122.167 92.273 C 118.518 91.228,116.327 90.024,113.195 87.344 C 112.219 86.508,111.137 85.146,109.611 82.833 C 107.254 79.260,106.240 73.023,107.295 68.583 C 107.975 65.721,108.066 65.416,108.282 65.283 C 108.402 65.210,108.500 64.992,108.500 64.799 C 108.500 64.606,108.673 64.216,108.885 63.932 C 109.097 63.649,109.372 63.154,109.497 62.833 C 109.622 62.512,110.032 61.875,110.409 61.417 C 110.787 60.958,111.214 60.396,111.360 60.167 C 112.026 59.118,115.229 56.222,116.530 55.492 C 117.683 54.845,119.487 54.000,119.717 54.000 C 119.848 54.000,120.146 53.850,120.379 53.667 C 120.612 53.483,121.016 53.333,121.276 53.332 C 121.537 53.332,122.050 53.247,122.417 53.143 C 123.094 52.952,125.944 52.566,126.992 52.523 C 127.309 52.511,128.396 52.580,129.409 52.678 M7.700 61.033 C 7.318 61.416,7.426 70.538,7.819 71.023 L 8.137 71.417 20.072 71.435 C 31.200 71.453,32.028 71.474,32.329 71.746 C 32.646 72.033,32.653 72.471,32.659 92.467 C 32.664 108.666,32.708 112.923,32.874 113.029 C 33.406 113.367,52.315 113.185,52.661 112.839 C 52.983 112.517,52.988 112.172,52.987 92.341 C 52.986 78.243,53.040 72.070,53.165 71.836 C 53.378 71.438,51.960 71.477,66.000 71.487 C 76.301 71.495,78.141 71.425,78.552 71.015 C 78.827 70.740,78.940 61.677,78.674 61.181 L 78.488 60.833 43.194 60.833 C 15.965 60.833,7.854 60.879,7.700 61.033 M236.700 61.033 C 236.546 61.187,236.500 67.203,236.500 87.096 L 236.500 112.958 237.021 113.063 C 237.958 113.250,291.158 113.183,291.511 112.994 C 291.946 112.761,292.024 93.366,291.591 93.007 C 291.405 92.852,287.431 92.810,274.508 92.825 C 262.822 92.839,257.565 92.791,257.333 92.667 C 256.913 92.442,256.801 82.039,257.216 81.695 C 257.365 81.571,262.618 81.501,274.376 81.466 C 289.255 81.423,291.352 81.386,291.574 81.164 C 291.936 80.802,292.004 61.210,291.644 60.983 C 291.266 60.743,236.940 60.793,236.700 61.033 M337.167 60.954 C 336.938 60.992,336.656 61.146,336.540 61.296 C 336.280 61.633,336.239 112.418,336.498 112.833 C 336.728 113.202,356.337 113.314,356.640 112.948 C 356.874 112.667,356.845 61.289,356.611 61.056 C 356.473 60.918,337.965 60.821,337.167 60.954 "
              stroke="none" fill="#f8fbf5" fill-rule="evenodd"></path>
    </g>
</svg>